<svg width="35" height="25" viewBox="0 0 35 25" fill="none" xmlns="http://www.w3.org/2000/svg">
<path d="M30.0532 0H3.98936C1.78963 0 0 1.78963 0 3.98936V21.0106C0 23.2104 1.78963 25 3.98936 25H30.0532C32.2529 25 34.0426 23.2104 34.0426 21.0106V3.98936C34.0426 1.78963 32.2529 0 30.0532 0ZM31.383 21.0106C31.383 21.7439 30.7864 22.3404 30.0532 22.3404H3.98936C3.25612 22.3404 2.65957 21.7439 2.65957 21.0106V3.98936C2.65957 3.25612 3.25612 2.65957 3.98936 2.65957H30.0532C30.7864 2.65957 31.383 3.25612 31.383 3.98936V21.0106Z" fill="#7F1D1D"/>
<path d="M31.1573 1.65805L17.0214 12.1725L2.88546 1.65805L1.2981 3.79203L17.0214 15.4871L32.7446 3.79203L31.1573 1.65805Z" fill="#7F1D1D"/>
</svg>
