<svg width="32" height="35" viewBox="0 0 32 35" fill="none" xmlns="http://www.w3.org/2000/svg">
<path d="M31.1512 33.3731L28.6705 10.2613C28.6292 9.88917 28.2984 9.59975 27.9263 9.59975H23.337V8.19402C23.337 4.22491 20.1121 1 16.143 1C12.1739 1 8.94899 4.22491 8.94899 8.19402V9.59975H4.23566C3.86356 9.59975 3.5328 9.88917 3.49145 10.2613L1.01076 33.3731C0.96941 33.5798 1.0521 33.7866 1.17613 33.9519C1.30017 34.1173 1.50689 34.2 1.71362 34.2H30.4484C30.6551 34.2 30.8618 34.1173 30.9859 33.9519C31.1099 33.7866 31.1926 33.5798 31.1512 33.3731ZM22.5928 13.7756C22.9649 13.7756 23.2543 14.065 23.2543 14.4371C23.2543 14.8092 22.9649 15.0986 22.5928 15.0986C22.2207 15.0986 21.9313 14.8092 21.9313 14.4371C21.9313 14.065 22.2207 13.7756 22.5928 13.7756ZM10.4374 8.19402C10.4374 5.05181 13.0008 2.48842 16.143 2.48842C19.2852 2.48842 21.8486 5.05181 21.8486 8.19402V9.59975H10.4374V8.19402ZM9.6932 13.7756C10.0653 13.7756 10.3547 14.065 10.3547 14.4371C10.3547 14.8092 10.0653 15.0986 9.6932 15.0986C9.32109 15.0986 9.03168 14.8092 9.03168 14.4371C9.03168 14.065 9.32109 13.7756 9.6932 13.7756ZM2.58186 32.6702L4.89718 11.0468H8.94899V12.4112C8.12209 12.7006 7.54326 13.4862 7.54326 14.3958C7.54326 15.5534 8.4942 16.5044 9.65185 16.5044C10.8095 16.5044 11.7604 15.5534 11.7604 14.3958C11.7604 13.4862 11.1816 12.7006 10.3547 12.4112V11.0468H21.7659V12.4112C20.939 12.7006 20.3602 13.4862 20.3602 14.3958C20.3602 15.5534 21.3111 16.5044 22.4688 16.5044C23.6265 16.5044 24.5774 15.5534 24.5774 14.3958C24.5774 13.4862 23.9986 12.7006 23.1717 12.4112V11.0468H27.3888L29.7042 32.6702H2.58186Z" fill="#7F1D1D" stroke="#7F1D1D"/>
</svg>
