<svg width="30" height="30" viewBox="0 0 30 30" fill="none" xmlns="http://www.w3.org/2000/svg">
<path fill-rule="evenodd" clip-rule="evenodd" d="M25.629 4.35974C22.8089 1.5498 19.0584 0.00164795 15.0627 0C6.82937 0 0.128606 6.66852 0.125294 14.8647C0.12419 17.4847 0.81193 20.0424 2.11915 22.2968L0 30L7.91857 27.9327C10.1005 29.1172 12.5569 29.7415 15.0567 29.7422H15.0629C23.2954 29.7422 29.9969 23.0731 30 14.8766C30.0017 10.9043 28.4494 7.16949 25.629 4.35974ZM15.0627 27.2316H15.0576C12.8299 27.2307 10.6451 26.6349 8.73859 25.5093L8.28544 25.2415L3.58644 26.4683L4.84067 21.9088L4.54537 21.4413C3.30255 19.474 2.64627 17.2002 2.64737 14.8656C2.64995 8.05316 8.21957 2.51074 15.0677 2.51074C18.3839 2.51184 21.5011 3.79871 23.8451 6.13422C26.1891 8.46973 27.4792 11.5741 27.4781 14.8757C27.4752 21.6887 21.9059 27.2316 15.0627 27.2316V27.2316ZM21.8728 17.9777C21.4997 17.7916 19.6646 16.8933 19.3224 16.7692C18.9805 16.6452 18.7314 16.5835 18.4829 16.9552C18.2339 17.3269 17.5188 18.1637 17.3009 18.4114C17.0831 18.6594 16.8656 18.6905 16.4923 18.5045C16.119 18.3186 14.9165 17.9262 13.4908 16.6608C12.3813 15.6758 11.6323 14.4595 11.4145 14.0878C11.197 13.7157 11.4126 13.5341 11.5782 13.3297C11.9823 12.8304 12.3868 12.3069 12.5112 12.0591C12.6358 11.8112 12.5734 11.5942 12.4799 11.4084C12.3868 11.2225 11.6404 9.39423 11.3295 8.65027C11.0263 7.92627 10.7188 8.02405 10.4896 8.0127C10.2721 8.00189 10.0232 7.99969 9.77425 7.99969C9.5255 7.99969 9.1211 8.09253 8.77889 8.4646C8.43686 8.83649 7.47277 9.73499 7.47277 11.5633C7.47277 13.3916 8.81016 15.1578 8.99673 15.4058C9.18329 15.6537 11.6286 19.4055 15.3726 21.0143C16.2631 21.3973 16.9582 21.6257 17.5004 21.7969C18.3945 22.0796 19.2079 22.0397 19.8512 21.9441C20.5683 21.8373 22.0592 21.0454 22.3705 20.1779C22.6814 19.3101 22.6814 18.5665 22.5879 18.4114C22.4948 18.2565 22.2459 18.1637 21.8728 17.9777V17.9777Z" fill="#7F1D1D"/>
</svg>
