<svg width="29" height="27" viewBox="0 0 29 27" fill="none" xmlns="http://www.w3.org/2000/svg">
<path d="M9.34351 17.7502H9.34483C9.34594 17.7502 9.34705 17.75 9.34815 17.75H24.752C25.1312 17.75 25.4646 17.4985 25.5689 17.1338L28.9673 5.23929C29.0405 4.98286 28.9892 4.70718 28.8288 4.49433C28.6682 4.28148 28.417 4.15626 28.1504 4.15626H7.38409L6.77675 1.42312C6.69024 1.03438 6.34553 0.757812 5.94728 0.757812H0.849611C0.380334 0.757812 0 1.13815 0 1.60742C0 2.0767 0.380334 2.45703 0.849611 2.45703H5.26582C5.37335 2.94136 8.17219 15.5364 8.33327 16.261C7.43033 16.6535 6.79689 17.5538 6.79689 18.5996C6.79689 20.005 7.94032 21.1485 9.34572 21.1485H24.752C25.2213 21.1485 25.6016 20.7681 25.6016 20.2989C25.6016 19.8296 25.2213 19.4493 24.752 19.4493H9.34572C8.87733 19.4493 8.49611 19.068 8.49611 18.5996C8.49611 18.1319 8.876 17.7514 9.34351 17.7502ZM27.024 5.85548L24.111 16.0508H10.0272L7.76155 5.85548H27.024Z" fill="white"/>
<path d="M8.49609 23.6973C8.49609 25.1027 9.63953 26.2461 11.0449 26.2461C12.4503 26.2461 13.5938 25.1027 13.5938 23.6973C13.5938 22.2919 12.4503 21.1485 11.0449 21.1485C9.63953 21.1485 8.49609 22.2919 8.49609 23.6973ZM11.0449 22.8477C11.5133 22.8477 11.8945 23.2289 11.8945 23.6973C11.8945 24.1657 11.5133 24.5469 11.0449 24.5469C10.5765 24.5469 10.1953 24.1657 10.1953 23.6973C10.1953 23.2289 10.5765 22.8477 11.0449 22.8477Z" fill="white"/>
<path d="M20.5039 23.6973C20.5039 25.1027 21.6473 26.2461 23.0527 26.2461C24.4581 26.2461 25.6016 25.1027 25.6016 23.6973C25.6016 22.2919 24.4581 21.1485 23.0527 21.1485C21.6473 21.1485 20.5039 22.2919 20.5039 23.6973ZM23.0527 22.8477C23.5211 22.8477 23.9023 23.2289 23.9023 23.6973C23.9023 24.1657 23.5211 24.5469 23.0527 24.5469C22.5843 24.5469 22.2031 24.1657 22.2031 23.6973C22.2031 23.2289 22.5843 22.8477 23.0527 22.8477Z" fill="white"/>
</svg>
