<svg width="34" height="44" viewBox="0 0 34 44" fill="none" xmlns="http://www.w3.org/2000/svg">
<path d="M32.2779 4.89141C31.8347 4.59908 31.2312 4.51421 30.6276 4.6368C30.0713 4.75939 29.5809 5.03286 29.2131 5.26861C27.9778 6.0513 26.9122 7.07916 26.0824 8.29563C26.073 8.30506 26.073 8.31449 26.0635 8.32392C25.7901 8.17304 25.5072 8.02216 25.2148 7.89014C24.6396 7.6261 24.0455 7.40922 23.4326 7.23005C23.8569 5.66467 24.4133 3.53349 23.6683 1.67578C23.3194 0.81765 22.7253 0.223561 22.0369 0.0538209C21.3485 -0.115919 20.5564 0.119831 20.0378 0.70449C19.5474 1.242 19.3682 2.00583 19.5663 2.6565C19.7926 3.38261 20.4998 3.90126 21.2165 3.87297C21.6126 3.84468 21.9898 3.66551 22.2632 3.37318C22.5178 3.10914 22.6499 2.74137 22.631 2.3736C22.5933 1.8078 22.1595 1.31744 21.622 1.25143C21.3014 1.22314 20.9902 1.35516 20.7733 1.60034C20.5753 1.81723 20.4998 2.10956 20.5658 2.39246C20.613 2.58106 20.8204 2.68479 20.9996 2.63764C21.1788 2.59049 21.2919 2.40189 21.2542 2.22272C21.2448 2.16614 21.2731 2.10013 21.3108 2.07184C21.3674 2.00583 21.4617 1.95868 21.556 1.95868C21.7446 1.97754 21.9143 2.19443 21.9332 2.42075C21.9426 2.59992 21.8766 2.76966 21.7446 2.91111C21.6031 3.06199 21.4051 3.16572 21.1976 3.17515C20.7922 3.19401 20.3772 2.87339 20.2452 2.45847C20.1132 2.04355 20.2452 1.54376 20.5753 1.19485C20.9147 0.82708 21.4334 0.63848 21.8766 0.76107C22.5461 0.93081 22.9139 1.66635 23.0365 1.96811C23.6589 3.49577 23.2911 5.19317 22.7725 7.09803C18.9156 6.30591 15.1813 7.71097 13.7762 10.7663C13.5594 11.2284 13.3047 11.9545 13.2104 12.4354C13.1539 12.7749 13.2387 13.1238 13.4556 13.5104C8.78778 14.3685 4.83661 17.4333 2.85631 21.7428C-0.519622 29.0605 2.67714 37.7172 9.97596 41.0837C17.2748 44.4502 25.9504 41.2629 29.3169 33.9546C31.3632 29.532 31.0614 24.3738 28.5059 20.2246C29.1283 20.1397 29.6092 19.9322 29.8732 19.5645C30.1278 19.225 30.3353 18.8667 30.5145 18.4895C32.0327 15.1984 30.3353 11.0775 26.6953 8.71055C27.4592 7.57895 28.4587 6.6171 29.6186 5.89099C29.9392 5.69296 30.3636 5.44778 30.7974 5.35348C31.2217 5.26861 31.6272 5.31576 31.9101 5.50436C32.2307 5.71182 32.4382 6.09845 32.4571 6.5228C32.4759 6.9943 32.2307 7.46579 31.8535 7.68268C31.4763 7.89957 30.9483 7.83356 30.6842 7.5318C30.5428 7.37149 30.4768 7.16404 30.4956 6.94715C30.505 6.76798 30.5805 6.59824 30.7219 6.46622C30.8445 6.36249 31.0048 6.31534 31.1651 6.35306C31.2877 6.39078 31.3726 6.48508 31.382 6.60767C31.382 6.65482 31.3537 6.70197 31.3255 6.73969C31.2972 6.76798 31.2783 6.77741 31.2406 6.78684C31.052 6.77741 30.8917 6.92828 30.8728 7.12631C30.8634 7.32434 31.0143 7.48465 31.2123 7.49408C31.4386 7.50351 31.6555 7.41864 31.8158 7.25833C31.9856 7.09802 32.0893 6.86228 32.0987 6.6171C32.0987 6.19275 31.7875 5.80612 31.3632 5.68353C30.986 5.58923 30.5805 5.68353 30.2787 5.93814C29.9958 6.18332 29.8261 6.53223 29.8072 6.90943C29.7695 7.31491 29.911 7.71097 30.175 8.01273C30.6654 8.55967 31.5423 8.68226 32.2213 8.29563C32.8343 7.94672 33.202 7.23947 33.1832 6.50394C33.1172 5.81555 32.7871 5.21203 32.2779 4.89141Z" fill="#1D1D1B"/>
<path d="M11.3716 28.7116C11.5508 27.3442 12.805 26.3918 14.1629 26.571C14.4929 26.6181 14.8041 26.7219 15.087 26.8822C17.1333 23.1007 19.0382 19.6399 20.0755 18.1406C16.7844 16.6695 13.814 14.6798 13.2765 13.1144C8.11826 13.699 3.50699 16.6978 1.30037 21.4882C-1.80209 28.2024 0.838303 36.199 7.18469 40.5557C7.5336 40.8008 9.99483 36.3405 12.739 31.2671C11.7771 30.7862 11.2396 29.7583 11.3716 28.7116ZM12.1826 19.2533C12.7578 17.9991 14.2383 17.4616 15.4831 18.0368C16.7373 18.6121 17.2748 20.0926 16.6996 21.3373C16.1243 22.5915 14.6438 23.129 13.3991 22.5538C12.1543 21.9786 11.6074 20.5075 12.1826 19.2533ZM2.96948 22.252C3.54471 20.9979 5.02522 20.4603 6.26998 21.0356C7.52417 21.6108 8.06168 23.0913 7.48645 24.3361C6.91122 25.5808 5.43071 26.1278 4.18595 25.5525C2.93176 24.9773 2.38482 23.4968 2.96948 22.252ZM8.24085 35.2749C7.66562 36.5291 6.18511 37.0666 4.94035 36.4913C3.68616 35.9161 3.14865 34.4356 3.72388 33.1908C4.29911 31.9461 5.77962 31.3991 7.02438 31.9744C8.26914 32.5496 8.81608 34.0301 8.24085 35.2749Z" fill="#C00D0D"/>
<path d="M20.6412 18.3857C20.1226 20.1397 18.7081 23.9023 17.1616 27.9666C18.4818 28.3438 19.2362 29.73 18.859 31.0502C18.4818 32.3704 17.0956 33.1248 15.7754 32.7476C15.6339 32.7005 15.5113 32.6627 15.3793 32.5967C13.3236 37.9813 11.5413 42.7434 11.8525 42.8377C19.4814 45.2424 27.6855 42.0833 30.8822 35.1523C33.1926 30.1544 32.3156 24.4398 29.1 20.0549C27.4308 20.6395 23.9323 19.7814 20.6412 18.3857ZM19.0759 40.4331C18.5006 41.6873 17.0201 42.2248 15.7754 41.6495C14.5212 41.0743 13.9837 39.5938 14.5589 38.349C15.1341 37.0948 16.6146 36.5573 17.8594 37.1326C19.1136 37.7078 19.6511 39.1977 19.0759 40.4331ZM21.754 26.4295C20.4998 25.8543 19.9623 24.3738 20.5375 23.129C21.1127 21.8843 22.5933 21.3373 23.838 21.9126C25.0828 22.4878 25.6297 23.9683 25.0545 25.2131C24.4793 26.4672 22.9893 27.0142 21.754 26.4295ZM27.8552 33.2946C27.28 34.5487 25.7995 35.0863 24.5547 34.511C23.3005 33.9358 22.763 32.4553 23.3382 31.2105C23.9135 29.9658 25.394 29.4188 26.6387 29.9941C27.8835 30.5693 28.4399 32.0498 27.8552 33.2946Z" fill="#C00D0D"/>
</svg>
