<svg xmlns="http://www.w3.org/2000/svg" viewBox="0 0 389.36 512">
  <defs>
    <style>
      .bdb3b382-1338-45e8-883d-c0002c965d27 {
        fill: #c00d0d;
      }
    </style>
  </defs>
  <g id="e491c11f-cc90-4a3c-8292-22d803af70df" data-name="Layer 2">
    <g id="a3c543d8-3df5-4f9f-9dd9-a1a06bc390a6" data-name="Layer 1">
      <path d="M378.73,57.39c-5.2-3.43-12.28-4.42-19.37-3-6.52,1.43-12.28,4.64-16.59,7.41A126.11,126.11,0,0,0,306,97.34c-.11.11-.11.22-.22.33-3.21-1.77-6.53-3.54-10-5.09a151.72,151.72,0,0,0-20.91-7.75c5-18.36,11.51-43.37,2.77-65.17-4.1-10.07-11.07-17-19.14-19a24.15,24.15,0,0,0-23.46,7.64,24.18,24.18,0,0,0-5.53,22.9c2.65,8.52,10.95,14.6,19.36,14.27a18.7,18.7,0,0,0,12.28-5.86,15.81,15.81,0,0,0,4.32-11.73c-.44-6.64-5.53-12.39-11.84-13.17a11.92,11.92,0,0,0-10,4.1,10.21,10.21,0,0,0-2.43,9.29,4.16,4.16,0,0,0,8.07-2,2,2,0,0,1,.67-1.77A3.94,3.94,0,0,1,252.92,23c2.22.22,4.21,2.77,4.43,5.42a7.73,7.73,0,0,1-2.21,5.76,9.65,9.65,0,0,1-6.42,3.1c-4.76.22-9.63-3.55-11.18-8.41s0-10.74,3.88-14.83c4-4.32,10.07-6.53,15.27-5.09,7.85,2,12.17,10.62,13.61,14.16,7.3,17.93,3,37.84-3.1,60.19-45.26-9.29-89.07,7.2-105.56,43A100.57,100.57,0,0,0,155,145.91c-.66,4,.33,8.08,2.88,12.61a170.68,170.68,0,0,0-124.37,96.6C-6.1,341,31.41,442.55,117.05,482.05S304.49,484.15,344,398.4a170.65,170.65,0,0,0-9.52-161.1c7.3-1,12.95-3.43,16-7.74A73.55,73.55,0,0,0,358,216.94c17.81-38.61-2.11-87-44.81-114.74a115.12,115.12,0,0,1,34.3-33.08c3.76-2.32,8.74-5.2,13.83-6.31s9.73-.44,13.05,1.77a15,15,0,0,1,6.42,12c.22,5.54-2.66,11.07-7.08,13.61S363.13,91.91,360,88.37a9.05,9.05,0,0,1-2.21-6.86,8.21,8.21,0,0,1,2.65-5.64,5.91,5.91,0,0,1,5.2-1.33,3.42,3.42,0,0,1,2.55,3,2.81,2.81,0,0,1-.67,1.55,1.79,1.79,0,0,1-1,.55,4.25,4.25,0,0,0-4.32,4,4.11,4.11,0,0,0,4,4.31,9.4,9.4,0,0,0,7.09-2.77,11,11,0,0,0,3.32-7.52,11.77,11.77,0,0,0-8.63-11,14.4,14.4,0,0,0-12.73,3,16.09,16.09,0,0,0-5.53,11.4,17.33,17.33,0,0,0,4.31,13c5.76,6.41,16.05,7.85,24,3.32,7.2-4.1,11.51-12.4,11.29-21C388.58,68.24,384.7,61.15,378.73,57.39Z"/>
      <path class="bdb3b382-1338-45e8-883d-c0002c965d27" d="M133.43,336.88a29.16,29.16,0,0,1,32.75-25.11A30.64,30.64,0,0,1,177,315.42c24-44.37,46.36-85,58.53-102.57-38.61-17.26-73.47-40.61-79.77-59-60.53,6.86-114.63,42-140.52,98.25-36.4,78.78-5.42,172.61,69,223.72,4.09,2.88,33-49.45,65.17-109A29.38,29.38,0,0,1,133.43,336.88Zm9.51-111a29.18,29.18,0,1,1,14.28,38.72A29.13,29.13,0,0,1,142.94,225.91ZM34.84,261.09a29.18,29.18,0,1,1,14.28,38.73A29.13,29.13,0,0,1,34.84,261.09Zm61.85,152.8a29.18,29.18,0,1,1-14.27-38.72A29.12,29.12,0,0,1,96.69,413.89Z"/>
      <path class="bdb3b382-1338-45e8-883d-c0002c965d27" d="M242.19,215.73c-6.08,20.58-22.68,64.72-40.83,112.41a29.2,29.2,0,1,1-16.26,56.1,33.76,33.76,0,0,1-4.65-1.77c-24.12,63.18-45,119-41.38,120.16,89.51,28.22,185.77-8.85,223.28-90.18,27.11-58.64,16.82-125.69-20.91-177.14C321.86,242.17,280.81,232.1,242.19,215.73ZM223.82,474.42a29.19,29.19,0,1,1-14.27-38.73A29.13,29.13,0,0,1,223.82,474.42Zm31.43-164.31A29.18,29.18,0,1,1,294,295.83,29.13,29.13,0,0,1,255.25,310.11Zm71.58,80.55a29.18,29.18,0,1,1-14.27-38.73A29.12,29.12,0,0,1,326.83,390.66Z"/>
    </g>
  </g>
</svg>
