<svg width="180" height="69" viewBox="0 0 180 69" fill="none" xmlns="http://www.w3.org/2000/svg">
<g clip-path="url(#clip0)">
<path d="M45.4013 63.365H180" stroke="black" stroke-width="0.1781" stroke-miterlimit="10"/>
<path d="M24.4295 65.8347C35.4322 65.8347 44.3517 56.9152 44.3517 45.9124C44.3517 34.9097 35.4322 25.9902 24.4295 25.9902C13.4267 25.9902 4.5072 34.9097 4.5072 45.9124C4.5072 56.9152 13.4267 65.8347 24.4295 65.8347Z" fill="#1D1D1B"/>
<path d="M36.0783 11.316C36.8192 8.55821 37.5601 5.55341 36.4899 2.91906C36.0782 1.93118 35.3579 0.963882 34.3083 0.696331C33.3822 0.469942 32.3737 0.840397 31.7357 1.54015C31.1183 2.21931 30.8507 3.18661 31.1183 4.05101C31.3858 4.9154 32.2296 5.59457 33.1352 5.55341C34.0407 5.51225 34.864 4.68901 34.8022 3.78346C34.7611 3.18661 34.3083 2.61035 33.732 2.54861C33.1352 2.48686 32.5383 3.06313 32.6824 3.63939" stroke="#1D1D1B" stroke-width="0.5342" stroke-miterlimit="10" stroke-linecap="round"/>
<path d="M41.2234 13.3535C42.4583 11.5218 44.0842 9.9577 45.9365 8.78459C46.5745 8.39355 47.2331 8.0231 47.974 7.87903C48.6943 7.73496 49.4969 7.79671 50.135 8.20832C50.7935 8.64052 51.2052 9.44317 51.2257 10.2252C51.2669 11.1308 50.7935 12.0775 50.0115 12.5303C49.2088 12.9831 48.118 12.8596 47.5006 12.1804C46.8832 11.5013 46.9038 10.3076 47.6035 9.73131C47.9328 9.46376 48.3856 9.31969 48.7972 9.44317C49.2088 9.56666 49.5381 9.93711 49.5381 10.3693C49.5381 10.8015 49.1677 11.1925 48.7355 11.172" stroke="#1D1D1B" stroke-width="0.5342" stroke-miterlimit="10" stroke-linecap="round"/>
<path d="M48.2621 54.9886C53.716 43.1752 47.7887 28.8098 35.0286 22.9031C22.2685 16.9964 7.49142 21.8329 2.03749 33.6463C-2.799 44.1425 1.31716 56.6351 11.2371 63.4267C12.4926 64.2911 31.0976 26.5253 32.5383 27.2045C33.6085 27.6984 17.4525 66.6579 18.5639 66.9872C30.4596 70.7535 43.2815 65.8141 48.2621 54.9886Z" fill="#C00D0D"/>
<path d="M21.6511 49.3494C23.7993 49.3494 25.5408 47.6079 25.5408 45.4597C25.5408 43.3114 23.7993 41.5699 21.6511 41.5699C19.5028 41.5699 17.7613 43.3114 17.7613 45.4597C17.7613 47.6079 19.5028 49.3494 21.6511 49.3494Z" fill="#1D1D1B"/>
<path d="M25.7467 51.4075C27.8949 51.4075 29.6364 49.666 29.6364 47.5177C29.6364 45.3695 27.8949 43.628 25.7467 43.628C23.5984 43.628 21.8569 45.3695 21.8569 47.5177C21.8569 49.666 23.5984 51.4075 25.7467 51.4075Z" fill="#1D1D1B"/>
<path d="M26.2817 65.526C28.43 65.526 30.1715 63.7845 30.1715 61.6362C30.1715 59.4879 28.43 57.7464 26.2817 57.7464C24.1335 57.7464 22.392 59.4879 22.392 61.6362C22.392 63.7845 24.1335 65.526 26.2817 65.526Z" fill="#1D1D1B"/>
<path d="M35.6048 41.7551C37.7531 41.7551 39.4946 40.0136 39.4946 37.8653C39.4946 35.7171 37.7531 33.9756 35.6048 33.9756C33.4565 33.9756 31.715 35.7171 31.715 37.8653C31.715 40.0136 33.4565 41.7551 35.6048 41.7551Z" fill="#1D1D1B"/>
<path d="M22.5772 35.7043C24.7254 35.7043 26.4669 33.9628 26.4669 31.8146C26.4669 29.6663 24.7254 27.9248 22.5772 27.9248C20.4289 27.9248 18.6874 29.6663 18.6874 31.8146C18.6874 33.9628 20.4289 35.7043 22.5772 35.7043Z" fill="#1D1D1B"/>
<path d="M40.0092 54.3712C42.1574 54.3712 43.8989 52.6297 43.8989 50.4814C43.8989 48.3331 42.1574 46.5916 40.0092 46.5916C37.8609 46.5916 36.1194 48.3331 36.1194 50.4814C36.1194 52.6297 37.8609 54.3712 40.0092 54.3712Z" fill="#1D1D1B"/>
<path d="M8.1706 40.3762C10.3189 40.3762 12.0604 38.6347 12.0604 36.4864C12.0604 34.3381 10.3189 32.5966 8.1706 32.5966C6.02234 32.5966 4.28082 34.3381 4.28082 36.4864C4.28082 38.6347 6.02234 40.3762 8.1706 40.3762Z" fill="#1D1D1B"/>
<path d="M9.3437 57.4583C11.492 57.4583 13.2335 55.7168 13.2335 53.5685C13.2335 51.4203 11.492 49.6787 9.3437 49.6787C7.19543 49.6787 5.45392 51.4203 5.45392 53.5685C5.45392 55.7168 7.19543 57.4583 9.3437 57.4583Z" fill="#1D1D1B"/>
<path d="M47.6652 28.9127C47.3771 29.5095 47.0478 30.0858 46.6567 30.6003C43.3226 35.0664 19.6547 24.8171 20.6425 19.4661C20.7866 18.7046 21.1982 17.5726 21.5275 16.8523C24.203 11.0691 32.209 9.07276 39.4329 12.3863C46.6567 15.6998 50.3201 23.1295 47.6652 28.9127Z" fill="#1D1D1B"/>
<path d="M58.038 57.3965C56.2886 57.3965 54.8891 56.8202 53.8806 55.6677C52.8722 54.5152 52.3577 52.951 52.3577 50.9753C52.3577 50.008 52.5223 49.0407 52.831 48.0528C53.1603 47.0649 53.6131 46.2211 54.2099 45.5419C54.8479 44.8216 55.6094 44.4512 56.4738 44.4512C57.3794 44.4512 57.8322 44.657 57.8322 45.0686C57.8322 45.2127 57.7498 45.4185 57.5852 45.6654C57.0089 46.5916 56.5562 47.5794 56.2269 48.6085C55.8976 49.6375 55.7329 50.5843 55.7329 51.4281C55.7329 52.3542 55.9387 53.1363 56.3709 53.7537C56.7825 54.3711 57.4411 54.7004 58.3261 54.7004C59.8903 54.7004 61.1045 53.1774 61.9483 50.1521C62.9568 46.4887 63.4713 40.9113 63.4713 33.4198C63.4713 28.11 63.389 23.9938 63.2038 21.0713C63.1009 19.3837 63.0597 18.0459 63.0597 17.0169C63.0597 16.8728 63.0597 16.7288 63.0803 16.6053C59.4581 17.5108 57.3588 17.9636 56.7825 17.9636C56.124 17.9636 55.7947 17.3256 55.7947 16.0702C55.7947 15.3087 56.1445 14.8559 56.8237 14.7118C58.7995 14.3002 61.0428 13.9298 63.5331 13.6005C65.2001 13.3741 66.7437 13.2506 68.1226 13.2506C68.8223 13.2506 69.5015 13.2918 70.1395 13.3741C70.7775 13.4564 71.1068 13.8269 71.1068 14.4443C71.1068 14.6707 71.0245 14.8559 70.8598 15.0411C70.6952 15.2058 70.3453 15.3293 69.7896 15.391L68.5342 15.5145C68.7812 17.9636 68.9047 22.759 68.9047 29.9211C68.9047 31.9792 68.8429 34.3048 68.74 36.898C68.5754 40.5614 68.0814 44.1013 67.2582 47.5177C66.7848 49.3906 66.188 51.0782 65.4677 52.56C64.7473 54.0418 63.78 55.2355 62.6069 56.0999C61.4338 56.9437 59.9108 57.3965 58.038 57.3965Z" fill="black"/>
<path d="M78.3101 48.094C77.137 48.094 76.1697 47.7853 75.3876 47.1884C73.2472 45.5214 72.177 42.3519 72.177 37.6595C72.177 36.5481 72.2593 35.3133 72.4034 33.9549C72.5475 32.5966 73.0208 31.5058 73.7823 30.662C74.2351 30.1681 74.8319 29.9211 75.5728 29.9211C75.9845 29.9211 76.3549 29.9623 76.643 30.0446C77.4045 28.1511 78.6188 27.1838 80.3064 27.1838C83.2701 27.1838 84.7519 29.5918 84.7519 34.4489C84.7519 36.5481 84.5872 38.5239 84.2374 40.4173C86.1926 40.3967 87.6538 38.9355 88.6211 36.013C88.7857 35.4985 88.9298 35.0457 89.0533 34.6547C89.1768 34.2636 89.4649 34.0578 89.9177 34.0578C90.2676 34.0578 90.5351 34.1813 90.7203 34.4283C90.8438 34.5929 90.885 34.7987 90.885 35.0046C90.885 35.1898 90.7203 35.8072 90.3705 36.8568C89.1768 40.4996 86.9952 42.3313 83.7846 42.3725C82.6732 46.1799 80.8621 48.094 78.3101 48.094ZM78.7423 45.6243C79.7713 45.6243 80.6151 44.3894 81.2943 41.9197C79.4832 41.2611 78.1043 40.0263 77.1781 38.2357C77.0958 39.2442 77.0752 40.1292 77.0752 40.9318C77.0752 41.7962 77.1164 42.5783 77.2193 43.2781C77.3222 43.9984 77.4869 44.5541 77.7338 44.9863C77.9808 45.4185 78.3101 45.6243 78.7423 45.6243ZM81.7677 39.8411C82.0764 38.1946 82.2205 36.4864 82.2205 34.7576C82.2205 33.2963 82.1175 32.1232 81.9117 31.2383C81.603 29.9211 81.0268 29.2831 80.1418 29.2831C79.6478 29.2831 79.2568 29.5301 78.9893 30.0446C78.7217 30.5385 78.5159 31.1354 78.413 31.8351C78.3101 32.5349 78.2483 33.1523 78.2483 33.7491C78.2483 35.2104 78.5365 36.4246 79.1333 37.4125C79.7919 38.5033 80.6769 39.3265 81.7677 39.8411Z" fill="black"/>
<path d="M102.945 48.485C100.043 48.485 98.397 45.5214 98.0471 39.5735C97.4503 41.5904 96.7917 43.2575 96.0919 44.5541C94.8571 46.7974 93.3547 47.9087 91.6053 47.9087C90.638 47.9087 89.8765 47.6618 89.3414 47.1473C88.8063 46.6533 88.4153 45.9947 88.1889 45.2127C87.9625 44.4306 87.8596 43.6279 87.8596 42.8253C87.8596 41.7139 87.9419 40.4996 88.1066 39.1825C88.2712 37.8447 88.5182 36.5481 88.8886 35.2309C89.2385 33.9344 89.7119 32.7407 90.3087 31.6499C90.9056 30.5591 91.6465 29.6947 92.5109 29.0361C93.3958 28.3775 94.4249 28.0482 95.6186 28.0482C96.7505 28.0482 97.7178 28.5833 98.541 29.633C98.644 29.2213 98.788 28.8715 98.9938 28.5833C99.4878 27.9248 100.393 27.5955 101.69 27.5955C102.595 27.5955 103.254 27.7189 103.645 27.9865C104.036 28.254 104.221 28.6862 104.221 29.2625C104.221 29.5301 104.201 29.8182 104.16 30.1269C104.077 30.6003 103.974 31.6293 103.81 33.1934C103.439 36.7539 103.275 39.7382 103.275 42.1255C103.275 42.5371 103.295 43.1957 103.336 44.1013C103.378 44.9863 103.563 45.439 103.933 45.439C104.592 45.439 105.559 44.019 106.815 41.1994C107.72 39.1001 108.543 36.9186 109.264 34.6135C109.387 34.2019 109.675 33.9961 110.107 33.9961C110.478 33.9961 110.745 34.1196 110.931 34.3666C111.054 34.5312 111.095 34.7164 111.095 34.9017C111.095 35.128 110.663 36.507 109.778 38.9972C107.576 45.3361 105.312 48.485 102.945 48.485ZM93.3753 44.019C93.7457 44.019 94.2191 43.4633 94.7542 42.3725C95.2893 41.2611 95.8244 39.9645 96.3389 38.4827C96.8534 37.0009 97.2856 35.6014 97.6561 34.3254C98.0059 33.0494 98.2117 32.185 98.2323 31.7116C98.1294 31.547 97.9648 31.3823 97.7384 31.2177C97.512 31.0736 97.265 30.9913 96.9975 30.9913C95.7009 30.9913 94.6513 32.3085 93.8486 34.9428C93.1283 37.289 92.7578 39.8616 92.7578 42.6401C92.7167 43.5456 92.9431 44.019 93.3753 44.019Z" fill="black"/>
<path d="M123.567 48.9172C121.88 48.9172 120.707 48.1557 120.007 46.6327C119.328 45.1097 118.978 42.9487 118.978 40.1086C118.978 38.9972 118.998 37.8653 119.06 36.7539C119.142 35.4985 119.163 34.2636 119.163 33.0494C119.163 32.2673 119.019 31.8762 118.71 31.8762C118.299 31.8762 117.866 32.2879 117.393 33.1317C116.92 33.9755 116.467 35.0251 116.035 36.2805C115.603 37.536 115.212 38.8532 114.841 40.2115C114.491 41.5698 114.203 42.7841 113.997 43.8749C113.791 44.9657 113.689 45.7683 113.689 46.2417C113.689 47.1472 113.524 47.7647 113.195 48.0528C112.865 48.3409 112.454 48.485 111.96 48.485C110.931 48.485 110.293 48.0322 110.046 47.1061C109.49 45.0891 109.223 41.5492 109.223 36.5275C109.223 33.6874 109.284 31.6087 109.428 30.2504C109.49 29.6947 109.634 29.2831 109.881 29.0155C110.128 28.748 110.457 28.5627 110.848 28.4804C111.239 28.3981 111.672 28.3569 112.166 28.3569C112.577 28.3569 112.989 28.3775 113.38 28.4392C113.771 28.501 114.1 28.6451 114.368 28.8714C114.635 29.0978 114.759 29.4683 114.759 29.9622C114.759 30.4973 114.718 31.053 114.635 31.6293C114.429 33.1317 114.265 34.6752 114.141 36.2394C115.973 30.4973 118.237 27.6366 120.954 27.6366C121.818 27.6366 122.477 27.8836 122.971 28.3569C123.464 28.8509 123.794 29.4889 124 30.3121C124.205 31.1353 124.308 32.0203 124.308 33.0082C124.308 34.8811 124.267 36.8774 124.185 38.9972C124.102 40.8495 124.082 42.496 124.082 43.916C124.082 45.2538 124.247 45.9124 124.576 45.9124C125.234 45.9124 126.14 44.7804 127.272 42.496C128.404 40.2115 129.412 37.5977 130.297 34.6547C130.421 34.243 130.709 34.0372 131.162 34.0372C131.512 34.0372 131.779 34.1607 131.964 34.4077C132.088 34.5723 132.129 34.7781 132.129 34.984C132.129 35.1074 132.108 35.2309 132.088 35.3338C130.565 40.335 129.104 43.916 127.704 46.0359C126.428 47.9499 125.07 48.9172 123.567 48.9172Z" fill="black"/>
<path d="M135.134 48.485C133.282 48.485 131.964 47.2913 131.141 44.8834C130.503 42.9899 130.174 40.6231 130.174 37.7624C130.174 32.5554 130.503 29.4889 131.162 28.6039C131.635 27.9453 132.541 27.616 133.837 27.616C134.763 27.616 135.422 27.7395 135.792 28.0071C136.163 28.2746 136.369 28.7068 136.369 29.2831C136.369 29.5506 136.348 29.8388 136.307 30.1475C136.245 30.5591 136.142 31.4441 136.019 32.8024C135.875 34.1402 135.751 35.6631 135.628 37.3714C135.504 39.0796 135.443 40.6231 135.443 42.0226C135.443 44.3277 135.648 45.4596 136.081 45.4596C136.76 45.4596 137.727 44.0395 138.982 41.22C139.991 38.9561 140.794 36.7539 141.432 34.6341C141.555 34.2225 141.823 34.0167 142.255 34.0167C142.625 34.0167 142.893 34.1402 143.078 34.3871C143.201 34.5518 143.243 34.737 143.243 34.9634C143.243 35.1898 142.81 36.5481 141.967 39.0384C139.765 45.3361 137.48 48.485 135.134 48.485ZM133.981 26.3812C133.611 26.3812 133.261 26.34 132.932 26.2783C132.582 26.2165 132.314 26.0519 132.088 25.7638C131.861 25.4962 131.759 25.0434 131.759 24.4466C131.759 23.6851 131.882 23.1294 132.108 22.759C132.355 22.3885 132.685 22.1415 133.096 22.0181C133.508 21.8946 133.961 21.8328 134.455 21.8328C134.825 21.8328 135.175 21.874 135.504 21.9357C135.854 21.9975 136.122 22.1621 136.348 22.4503C136.574 22.7178 136.677 23.1706 136.677 23.7674C136.677 25.5168 135.772 26.3812 133.981 26.3812Z" fill="black"/>
<path d="M145.98 48.9172C145.054 48.9172 144.292 48.6291 143.716 48.0734C142.646 47.0444 141.946 45.3362 141.637 42.9282C141.432 41.3846 141.329 39.6764 141.329 37.7624C141.329 35.231 141.473 31.5882 141.781 26.8957C141.143 26.8751 140.526 26.8134 139.909 26.7722C139.62 26.7517 139.435 26.5664 139.332 26.2577C139.25 25.949 139.209 25.5374 139.209 25.0023C139.209 24.7553 139.229 24.5289 139.271 24.3025C139.312 24.0762 139.456 23.9527 139.703 23.9527C139.909 23.9527 140.135 23.9732 140.382 23.9938C140.896 24.0762 141.432 24.1379 141.967 24.1996C142.008 23.3764 142.07 22.5532 142.172 21.6682C142.214 21.0919 142.399 20.6803 142.708 20.3922C143.201 19.9394 144.066 19.713 145.28 19.713C145.692 19.713 146.083 19.7542 146.453 19.8159C146.824 19.8777 147.132 20.0217 147.379 20.2687C147.626 20.4951 147.729 20.8861 147.729 21.4006C147.729 21.9563 147.688 22.6149 147.585 23.3558C147.523 23.7263 147.482 24.1173 147.441 24.5701C147.956 24.5907 148.779 24.5907 149.931 24.5907C150.446 24.5907 150.713 24.8788 150.713 25.4345C150.713 25.949 150.569 26.2577 150.261 26.4018C149.643 26.6693 148.614 26.834 147.215 26.9163C146.638 33.5228 146.35 38.7503 146.35 42.5783C146.35 44.8216 146.536 45.9536 146.927 45.9536C147.585 45.9536 148.511 44.4923 149.746 41.5493C150.816 38.9973 151.64 36.7128 152.257 34.6959C152.381 34.2842 152.669 34.0784 153.101 34.0784C153.471 34.0784 153.739 34.2019 153.924 34.4489C154.048 34.6135 154.089 34.7988 154.089 34.984C154.089 35.1692 153.718 36.3423 152.998 38.5033C150.672 45.4391 148.326 48.9172 145.98 48.9172Z" fill="black"/>
<path d="M166.129 48.485C163.227 48.485 161.58 45.5214 161.23 39.5735C160.633 41.5904 159.975 43.2575 159.275 44.5541C158.04 46.7974 156.538 47.9087 154.788 47.9087C153.821 47.9087 153.06 47.6618 152.525 47.1473C151.99 46.6533 151.598 45.9947 151.372 45.2127C151.146 44.4306 151.043 43.6279 151.043 42.8253C151.043 41.7139 151.125 40.4996 151.29 39.1825C151.454 37.8447 151.701 36.5481 152.072 35.2309C152.422 33.9344 152.895 32.7407 153.492 31.6499C154.089 30.5591 154.83 29.6947 155.694 29.0361C156.579 28.3775 157.608 28.0482 158.802 28.0482C159.934 28.0482 160.901 28.5833 161.724 29.633C161.827 29.2213 161.971 28.8715 162.177 28.5833C162.671 27.9248 163.577 27.5955 164.873 27.5955C165.779 27.5955 166.437 27.7189 166.828 27.9865C167.219 28.254 167.405 28.6862 167.405 29.2625C167.405 29.5301 167.384 29.8182 167.343 30.1269C167.26 30.6003 167.158 31.6293 166.993 33.1934C166.622 36.7539 166.458 39.7382 166.458 42.1255C166.458 42.5371 166.478 43.1957 166.52 44.1013C166.561 44.9863 166.746 45.439 167.116 45.439C167.775 45.439 168.742 44.019 169.998 41.1994C170.903 39.1001 171.727 36.9186 172.447 34.6135C172.57 34.2019 172.858 33.9961 173.291 33.9961C173.661 33.9961 173.929 34.1196 174.114 34.3666C174.237 34.5312 174.279 34.7164 174.279 34.9017C174.279 35.128 173.846 36.507 172.961 38.9972C170.759 45.3361 168.495 48.485 166.129 48.485ZM156.558 44.019C156.929 44.019 157.402 43.4633 157.937 42.3725C158.472 41.2611 159.008 39.9645 159.522 38.4827C160.037 37.0009 160.469 35.6014 160.839 34.3254C161.189 33.0494 161.395 32.185 161.416 31.7116C161.313 31.547 161.148 31.3823 160.922 31.2177C160.695 31.0736 160.448 30.9913 160.181 30.9913C158.884 30.9913 157.834 32.3085 157.032 34.9428C156.311 37.289 155.941 39.8616 155.941 42.6401C155.9 43.5456 156.106 44.019 156.558 44.019Z" fill="black"/>
<path d="M82.8585 52.3338V52.8689H80.7181V56.0795H82.3234V56.6146H80.7181V60.3809H80.183V52.3338H82.8585V52.3338Z" fill="black"/>
<path d="M88.2506 52.3336V52.8687H86.1102V56.0793H87.7155V56.6144H86.1102V59.8251H88.2506V60.3602H85.5751V52.313H88.2506V52.3336Z" fill="black"/>
<path d="M90.9879 58.7754V58.2403H91.523V58.7754C91.523 59.0636 91.6259 59.3311 91.8317 59.5369C92.0375 59.7427 92.2845 59.8456 92.5932 59.8456C92.8813 59.8456 93.1489 59.7427 93.3547 59.5369C93.5605 59.3311 93.6634 59.0841 93.6634 58.7754V57.7052C93.6634 57.4171 93.5605 57.1495 93.3547 56.9437C93.1489 56.7379 92.9019 56.635 92.5932 56.635C92.1404 56.635 91.77 56.4704 91.4612 56.1617C91.1525 55.853 90.9879 55.4619 90.9879 55.0297V53.9595C90.9879 53.5067 91.1525 53.1363 91.4612 52.8276C91.77 52.5189 92.161 52.3542 92.5932 52.3542C93.0254 52.3542 93.4164 52.5189 93.7251 52.8276C94.0338 53.1363 94.1985 53.5273 94.1985 53.9595V54.4946H93.6634V53.9595C93.6634 53.6714 93.5605 53.4038 93.3547 53.198C93.1489 52.9922 92.9019 52.8893 92.5932 52.8893C92.3051 52.8893 92.0375 52.9922 91.8317 53.198C91.6259 53.4038 91.523 53.6508 91.523 53.9595V55.0297C91.523 55.3179 91.6259 55.5854 91.8317 55.7912C92.0375 55.997 92.2845 56.0999 92.5932 56.0999C93.046 56.0999 93.4164 56.2646 93.7251 56.5733C94.0338 56.882 94.1985 57.273 94.1985 57.7052V58.7754C94.1985 59.2282 94.0338 59.5987 93.7251 59.9074C93.4164 60.2161 93.0254 60.3807 92.5932 60.3807C92.161 60.3807 91.77 60.2161 91.4612 59.9074C91.1319 59.5987 90.9879 59.2076 90.9879 58.7754Z" fill="black"/>
<path d="M99.6113 52.3336V52.8688H98.5411V60.3808H98.006V52.8688H96.9358V52.3336H99.6113Z" fill="black"/>
<path d="M104.119 58.2404H102.616L102.246 60.3808H101.711L103.089 52.3336H103.666L105.045 60.3808H104.51L104.119 58.2404ZM102.719 57.7052H104.036L103.378 53.8361L102.719 57.7052Z" fill="black"/>
<path d="M114.718 53.939V54.4741H114.183V53.939C114.183 53.6508 114.08 53.3833 113.874 53.1775C113.668 52.9717 113.421 52.8688 113.112 52.8688C112.824 52.8688 112.557 52.9717 112.351 53.1775C112.145 53.3833 112.042 53.6302 112.042 53.939V58.7755C112.042 59.0636 112.145 59.3311 112.351 59.5369C112.557 59.7428 112.804 59.8457 113.112 59.8457C113.4 59.8457 113.668 59.7428 113.874 59.5369C114.08 59.3311 114.183 59.0842 114.183 58.7755V58.2404H114.718V58.7755C114.718 59.2282 114.553 59.5987 114.244 59.9074C113.936 60.2161 113.545 60.3808 113.112 60.3808C112.68 60.3808 112.289 60.2161 111.98 59.9074C111.672 59.5987 111.507 59.2077 111.507 58.7755V53.939C111.507 53.4862 111.672 53.1157 111.98 52.807C112.289 52.4983 112.68 52.3336 113.112 52.3336C113.545 52.3336 113.936 52.4983 114.244 52.807C114.574 53.1157 114.718 53.5068 114.718 53.939Z" fill="black"/>
<path d="M120.665 58.7755C120.665 59.2282 120.501 59.5987 120.192 59.9074C119.883 60.2161 119.492 60.3808 119.06 60.3808C118.628 60.3808 118.237 60.2161 117.928 59.9074C117.619 59.5987 117.455 59.2077 117.455 58.7755V53.939C117.455 53.4862 117.619 53.1157 117.928 52.807C118.237 52.4983 118.628 52.3336 119.06 52.3336C119.492 52.3336 119.883 52.4983 120.192 52.807C120.501 53.1157 120.665 53.5068 120.665 53.939V58.7755ZM117.99 58.7755C117.99 59.0636 118.093 59.3311 118.299 59.5369C118.504 59.7428 118.751 59.8457 119.06 59.8457C119.348 59.8457 119.616 59.7428 119.822 59.5369C120.027 59.3311 120.13 59.0842 120.13 58.7755V53.939C120.13 53.6508 120.027 53.3833 119.822 53.1775C119.616 52.9717 119.369 52.8688 119.06 52.8688C118.772 52.8688 118.504 52.9717 118.299 53.1775C118.093 53.3833 117.99 53.6302 117.99 53.939V58.7755Z" fill="black"/>
<path d="M123.917 53.9595V60.3808H123.382V52.3336H123.938L125.543 57.129L127.128 52.3336H127.684V60.3808H127.148V53.9595L125.543 58.8372L123.917 53.9595Z" fill="black"/>
<path d="M136.554 58.2404H135.051L134.681 60.3808H134.146L135.525 52.3336H136.101L137.48 60.3808H136.945L136.554 58.2404ZM135.154 57.7052H136.472L135.813 53.8361L135.154 57.7052Z" fill="black"/>
<path d="M141.761 52.3336C142.214 52.3336 142.584 52.4983 142.893 52.807C143.201 53.1157 143.366 53.5068 143.366 53.939V55.0092C143.366 55.4619 143.201 55.8324 142.893 56.1411C142.625 56.4087 142.296 56.5733 141.905 56.6145L143.366 60.3808H142.79L141.349 56.6145H140.691V60.3808H140.156V52.3336H141.761V52.3336ZM141.761 52.8688H140.691V56.0794H141.761C142.049 56.0794 142.317 55.9765 142.522 55.7706C142.728 55.5648 142.831 55.3179 142.831 55.0092V53.939C142.831 53.6508 142.728 53.3833 142.522 53.1775C142.296 52.9717 142.049 52.8688 141.761 52.8688Z" fill="black"/>
<path d="M148.779 52.3336V52.8688H147.709V60.3808H147.153V52.8688H146.083V52.3336H148.779Z" fill="black"/>
<path d="M154.171 52.3336V52.8687H152.031V56.0793H153.636V56.6144H152.031V59.8251H154.171V60.3602H151.496V52.313H154.171V52.3336Z" fill="black"/>
</g>
<defs>
<clipPath id="clip0">
<rect width="180" height="68.1637" fill="white" transform="translate(0 0.0788879)"/>
</clipPath>
</defs>
</svg>
