<svg width="23" height="21" viewBox="0 0 23 21" fill="none" xmlns="http://www.w3.org/2000/svg">
<path fill-rule="evenodd" clip-rule="evenodd" d="M22.55 2.36538C22.55 2.80062 22.2614 3.15385 21.9057 3.15385H0.644286C0.28864 3.15385 0 2.80062 0 2.36538V0.788462C0 0.353231 0.28864 0 0.644286 0H21.9057C22.2614 0 22.55 0.353231 22.55 0.788462V2.36538ZM22.55 11.0385C22.55 11.4737 22.2614 11.8269 21.9057 11.8269H0.644286C0.28864 11.8269 0 11.4737 0 11.0385V9.46155C0 9.02632 0.28864 8.67309 0.644286 8.67309H21.9057C22.2614 8.67309 22.55 9.02632 22.55 9.46155V11.0385ZM21.9057 20.5C22.2614 20.5 22.55 20.1468 22.55 19.7116V18.1346C22.55 17.6994 22.2614 17.3462 21.9057 17.3462H0.644286C0.28864 17.3462 0 17.6994 0 18.1346V19.7116C0 20.1468 0.28864 20.5 0.644286 20.5H21.9057Z" fill="#831843"/>
</svg>
