<svg width="33" height="33" viewBox="0 0 33 33" fill="none" xmlns="http://www.w3.org/2000/svg">
<path d="M16.4707 0C7.37427 0 0 7.4051 0 16.5395C0 24.7321 5.93801 31.5169 13.7237 32.8307V19.9901H9.7505V15.3694H13.7237V11.9622C13.7237 8.00884 16.1282 5.85451 19.6407 5.85451C21.3229 5.85451 22.7686 5.98039 23.1883 6.03583V10.1681L20.7522 10.1693C18.8424 10.1693 18.4742 11.0804 18.4742 12.4179V15.367H23.0311L22.4368 19.9878H18.4742V32.9412C26.6234 31.9452 32.9412 24.9876 32.9412 16.5348C32.9412 7.4051 25.5669 0 16.4707 0Z" fill="#991B1B"/>
</svg>
