<svg width="33" height="33" viewBox="0 0 33 33" fill="none" xmlns="http://www.w3.org/2000/svg">
<path d="M16.5294 32.9412C25.6212 32.9412 33 25.5624 33 16.4706C33 7.37882 25.6212 0 16.5294 0C7.43766 0 0.0588379 7.37882 0.0588379 16.4706C0.0588379 25.5624 7.43766 32.9412 16.5294 32.9412ZM22.4081 15.2943H24.7661V12.9376H27.1241V15.2957H29.4616V17.6537H27.1241V20.0118H24.7661V17.6537H22.4081V15.2943ZM11.8339 8.23392C13.912 8.23392 15.8253 8.96549 17.3475 10.3792L15.1157 12.5451C14.2386 11.6873 13.0377 11.2769 11.8339 11.2769C8.98452 11.2769 6.70609 13.6349 6.70609 16.4637C6.70609 19.2925 8.97766 21.6506 11.8339 21.6506C13.9984 21.6506 16.1437 20.3824 16.4896 18.1108H11.8339V15.282H19.5984C19.6849 15.7335 19.7247 16.1851 19.7247 16.6559C19.7247 21.3582 16.5692 24.7045 11.8339 24.7045V24.7059C7.26472 24.7059 3.59727 21.0192 3.59727 16.4692C3.59727 11.9192 7.26472 8.23392 11.8339 8.23392Z" fill="#991B1B"/>
</svg>
