<?xml version="1.0" encoding="utf-8"?>
<!-- Generator: Adobe Illustrator 24.1.0, SVG Export Plug-In . SVG Version: 6.00 Build 0)  -->
<svg version="1.1" id="Layer_1" xmlns="http://www.w3.org/2000/svg" xmlns:xlink="http://www.w3.org/1999/xlink" x="0px" y="0px"
	 viewBox="0 0 15 20" style="enable-background:new 0 0 15 20;" xml:space="preserve">
<style type="text/css">
	.st0{fill:#FFFFFF;stroke:#000000;stroke-width:0.75;}
</style>
<g>
	<path class="st0" d="M14.5,17.1c0-0.1,0-0.1,0-0.3c0-2.3-0.2-3.7-0.9-4.5C13,11.5,12,11,9.8,10.6c-0.1,0.1-0.2,0.2-0.4,0.3
		c-0.4,0.2-1.1,0.5-1.9,0.5S6,11.1,5.6,10.9c-0.2-0.1-0.3-0.2-0.4-0.3C3,11,2,11.5,1.4,12.3c-0.6,0.8-0.8,2.1-0.9,4.4
		c0,0.2,0,0.3,0,0.3c0,0,0,0,0,0c0,0,0,0,0,0c0,0.1,0,0.2,0,0.3c0,0,0.1,0.1,0.1,0.1c0.2,0.2,0.5,0.4,1,0.7c1,0.5,2.8,1.1,5.9,1.1
		c3.1,0,4.9-0.5,5.9-1.1c0.5-0.3,0.8-0.5,1-0.7c0.1-0.1,0.1-0.1,0.1-0.1C14.5,17.3,14.5,17.2,14.5,17.1
		C14.5,17.2,14.5,17.1,14.5,17.1z"/>
	<path class="st0" d="M7.5,9.1c1.8,0,3.5-1.8,3.5-4.3c0-1.3-0.2-2.4-0.6-3.1C9.9,1,9.1,0.5,7.5,0.5S5.1,1,4.7,1.7
		C4.2,2.4,4,3.5,4,4.8C4,7.3,5.7,9.1,7.5,9.1z"/>
</g>
</svg>
