<svg width="15" height="20" viewBox="0 0 15 20" fill="none" xmlns="http://www.w3.org/2000/svg">
<path d="M10.971 4.82314C10.971 7.30606 9.33041 9.14623 7.50014 9.14623C5.66975 9.14623 4.02917 7.30605 4.02917 4.82314C4.02917 3.5029 4.17959 2.4273 4.66326 1.68583C5.11479 0.993627 5.9228 0.5 7.50014 0.5C9.07747 0.5 9.88545 0.993626 10.337 1.68582C10.8206 2.42729 10.971 3.50289 10.971 4.82314Z" fill="white" stroke="black"/>
<path d="M9.8409 10.5557C11.9807 10.9646 13.0486 11.4727 13.6406 12.2844C14.2736 13.1524 14.4545 14.4795 14.4917 16.8236L9.8409 10.5557ZM9.8409 10.5557C9.73609 10.6471 9.5938 10.7559 9.41151 10.8631C8.98746 11.1127 8.35705 11.3481 7.50017 11.3481C6.64329 11.3481 6.01286 11.1127 5.58879 10.8631C5.40647 10.7559 5.26416 10.6471 5.15934 10.5557C3.04381 10.9599 1.97623 11.4611 1.3803 12.2565C0.745876 13.1033 0.553943 14.3948 0.511296 16.6744L0.511295 16.6744C0.50784 16.8583 0.505225 16.9605 0.503158 17.0122C0.502643 17.0251 0.502021 17.0385 0.5012 17.0507C0.500984 17.054 0.500653 17.0587 0.500167 17.0643L9.8409 10.5557ZM14.9916 16.8158C14.9907 16.7578 14.9897 16.7004 14.9886 16.6434C14.8589 16.6461 14.754 16.6997 14.6876 16.7527C14.6588 16.7757 14.6354 16.7996 14.6168 16.8217L14.989 16.8158L14.6167 16.8217C14.5886 16.8552 14.5713 16.8846 14.5623 16.9008C14.5444 16.9329 14.5338 16.9605 14.5283 16.9762C14.5107 17.0258 14.5051 17.0682 14.5046 17.0721L14.5046 17.0723C14.5028 17.0846 14.502 17.0941 14.5016 17.0982C14.5009 17.1067 14.5006 17.1129 14.5005 17.114L14.5005 17.1141L14.9981 17.1262C14.9966 17.0921 14.9945 17.0025 14.9916 16.8158ZM0.0113834 16.665C0.00757904 16.8675 0.00489508 16.9647 0.0030427 17.0041L0.499785 16.9961C0.499693 16.994 0.499481 16.9898 0.499076 16.9846C0.498832 16.9814 0.498322 16.9753 0.497403 16.9673C0.496782 16.962 0.494623 16.9435 0.489525 16.92C0.487181 16.9092 0.481368 16.8838 0.469815 16.8527C0.469712 16.8524 0.469562 16.852 0.469363 16.8514C0.464752 16.8384 0.433994 16.752 0.352907 16.6714C0.352898 16.6714 0.352888 16.6714 0.352879 16.6714C0.344199 16.6628 0.334942 16.6542 0.325078 16.6458C0.263577 16.5935 0.156855 16.5303 0.0141678 16.5268C0.0131784 16.5726 0.0122514 16.6186 0.0113834 16.665Z" fill="white" stroke="black"/>
</svg>
