<svg width="17" height="22" viewBox="0 0 17 22" fill="none" xmlns="http://www.w3.org/2000/svg">
<path d="M7.05829 14.9938L6.77353 17.5544C6.75944 17.6818 6.8004 17.8096 6.88592 17.9053C6.97145 18.0009 7.094 18.0556 7.22227 18.0556H9.02784C9.15611 18.0556 9.27866 18.0009 9.36418 17.9053C9.44971 17.8097 9.49071 17.6818 9.47658 17.5544L9.19182 14.9938C9.65423 14.6574 9.93061 14.1254 9.93061 13.5417C9.93061 12.5459 9.12086 11.7361 8.12503 11.7361C7.12921 11.7361 6.31946 12.5459 6.31946 13.5417C6.31946 14.1254 6.59588 14.6574 7.05829 14.9938ZM8.12503 12.639C8.62269 12.639 9.0278 13.0441 9.0278 13.5417C9.0278 13.8877 8.83119 14.1976 8.5147 14.351C8.34234 14.4348 8.24141 14.6173 8.26257 14.8073L8.52354 17.1528H7.72657L7.98754 14.8073C8.0087 14.6173 7.90777 14.4348 7.73541 14.351C7.41892 14.1976 7.22231 13.8877 7.22231 13.5417C7.22227 13.0441 7.62738 12.639 8.12503 12.639Z" fill="black"/>
<path d="M15.7986 8.125H14.4444V6.31943C14.4444 2.83486 11.6096 0 8.125 0C4.64039 0 1.80557 2.83486 1.80557 6.31943V8.125H0.451403C0.201898 8.125 0 8.3269 0 8.5764V19.8611C0 20.8569 0.809749 21.6667 1.80557 21.6667H14.4445C15.4403 21.6667 16.25 20.8569 16.25 19.8611V8.5764C16.25 8.3269 16.0481 8.125 15.7986 8.125ZM2.70833 6.31943C2.70833 3.33252 5.13809 0.902764 8.125 0.902764C11.1119 0.902764 13.5417 3.33252 13.5417 6.31943V8.125H12.6389V6.31943C12.6389 3.8306 10.6138 1.80553 8.125 1.80553C5.63617 1.80553 3.6111 3.83064 3.6111 6.31943V8.125H2.70833V6.31943ZM11.7361 6.31943V8.125H4.5139V6.31943C4.5139 4.3283 6.13387 2.70833 8.125 2.70833C10.1161 2.70833 11.7361 4.3283 11.7361 6.31943ZM15.3472 19.8611C15.3472 20.3588 14.9421 20.7639 14.4445 20.7639H1.80557C1.30791 20.7639 0.902806 20.3588 0.902806 19.8611V9.02776H15.3472V19.8611V19.8611Z" fill="black"/>
</svg>
