<svg xmlns="http://www.w3.org/2000/svg" viewBox="0 0 1920 400">
  <defs>
    <style>
      .b993a324-a967-4cff-ba86-d5e016ed2936 {
        fill: #991b1b;
      }
    </style>
  </defs>
  <g id="e7634d5f-6059-4139-90a9-7c9e0950b4a0" data-name="Layer 2">
    <g id="b7c93d12-64ed-41d1-844d-1aaee8c21a5b" data-name="Layer 1">
      <g>
        <path class="b993a324-a967-4cff-ba86-d5e016ed2936" d="M38.9,0H0V41.47A68.19,68.19,0,0,1,38.9,0Z"/>
        <path class="b993a324-a967-4cff-ba86-d5e016ed2936" d="M1643.56,0a68,68,0,1,1-74.12,0h-355c0,1,.08,2,.08,3a68,68,0,0,1-136,0c0-1,0-2,.08-3H90.1A68,68,0,1,1,0,84.53V400H104.08a68,68,0,1,1,124.84,0H579.08a68,68,0,1,1,124.84,0h622.91a68,68,0,1,1,105.34,0H1920V0ZM351.5,215a68,68,0,1,1,68-68A68,68,0,0,1,351.5,215Zm1461,165a68,68,0,1,1,68-68A68,68,0,0,1,1812.5,380Z"/>
        <path d="M64.5,131A68,68,0,0,0,90.1,0H38.9A68.19,68.19,0,0,0,0,41.47V84.53A68,68,0,0,0,64.5,131Z"/>
        <path d="M166.5,305a68,68,0,0,0-62.42,95H228.92a68,68,0,0,0-62.42-95Z"/>
        <circle cx="351.5" cy="147" r="68"/>
        <path d="M1146.5,71a68,68,0,0,0,68-68c0-1,0-2-.08-3H1078.58c0,1-.08,2-.08,3A68,68,0,0,0,1146.5,71Z"/>
        <path d="M1538.5,57A68,68,0,1,0,1643.56,0h-74.12A67.92,67.92,0,0,0,1538.5,57Z"/>
        <circle cx="1812.5" cy="312" r="68"/>
        <path d="M1379.5,289a68,68,0,0,0-52.67,111h105.34a68,68,0,0,0-52.67-111Z"/>
        <path d="M641.5,305a68,68,0,0,0-62.42,95H703.92a68,68,0,0,0-62.42-95Z"/>
      </g>
    </g>
  </g>
</svg>
