<svg width="163" height="60" viewBox="0 0 163 60" fill="none" xmlns="http://www.w3.org/2000/svg">
<path d="M32.8274 21.1174L27.75 44.3994C27.2546 46.7523 26.5941 48.8782 25.7685 50.7771C24.9842 52.7173 23.9935 54.3478 22.7964 55.6688C21.5992 56.9898 20.1751 58.0011 18.5239 58.7029C16.914 59.4459 15.0357 59.8174 12.8892 59.8174C11.0316 59.8174 9.48356 59.5698 8.24516 59.0744C7.04804 58.579 6.07796 57.9392 5.33492 57.1549C4.59188 56.3706 4.05524 55.4624 3.725 54.4304C3.43604 53.4397 3.29156 52.4077 3.29156 51.3344C3.29156 50.2611 3.43604 49.2085 3.725 48.1765C4.01396 47.1858 4.48867 46.2982 5.14915 45.5139C5.80963 44.6883 6.65587 44.0278 7.68787 43.5325C8.76115 43.0371 10.0615 42.7894 11.5888 42.7894C12.0016 42.7894 12.5176 42.8307 13.1368 42.9133C13.756 42.9958 14.334 43.1816 14.8706 43.4706C15.4485 43.7182 15.9232 44.131 16.2948 44.709C16.7076 45.2456 16.914 45.9886 16.914 46.9381C16.914 47.6811 16.7901 48.5067 16.5424 49.4149C15.9645 48.6306 15.304 48.0526 14.561 47.6811C13.818 47.3096 13.0543 47.1238 12.27 47.1238C11.0316 47.1238 9.917 47.5986 8.92628 48.548C7.97684 49.4974 7.50211 50.7565 7.50211 52.3251C7.50211 53.8525 7.97684 55.0702 8.92628 55.9784C9.87572 56.9278 11.0728 57.4026 12.5176 57.4026C13.2194 57.4026 13.9212 57.2581 14.6229 56.9691C15.366 56.7214 16.0677 56.2674 16.7282 55.6069C17.43 54.9877 18.0492 54.1414 18.5858 53.0682C19.1637 52.0362 19.6384 50.7152 20.01 49.1053L23.1679 34.6779C21.7644 36.5355 20.1544 37.939 18.3381 38.8885C16.5218 39.7966 14.561 40.2507 12.4557 40.2507C10.6394 40.2507 8.96755 39.8998 7.44019 39.1981C5.95411 38.4963 4.67444 37.5056 3.60116 36.2259C2.52788 34.905 1.68164 33.295 1.06244 31.3962C0.484519 29.4973 0.195557 27.3301 0.195557 24.8946C0.195557 21.7573 0.711553 18.7232 1.74355 15.7923C2.77555 12.8614 4.241 10.2608 6.13988 7.9904C8.08004 5.72 10.4124 3.92432 13.1368 2.60336C15.9026 1.24112 18.9986 0.559998 22.4248 0.559998C23.8696 0.559998 25.2938 0.704478 26.6973 0.99344C28.1008 1.2824 29.3392 1.75712 30.4125 2.4176C31.5271 3.07808 32.4146 3.9656 33.0751 5.08016C33.7356 6.15344 34.0658 7.49504 34.0658 9.10496C34.0658 10.5498 33.7356 11.8294 33.0751 12.944C32.4146 14.0173 31.3 14.5539 29.7314 14.5539C29.4837 14.5539 29.1741 14.5333 28.8026 14.492C28.4311 14.4507 28.0389 14.3682 27.6261 14.2443C27.2546 14.1205 26.8624 13.9554 26.4496 13.749C26.0781 13.5426 25.7479 13.2742 25.4589 12.944C25.5828 12.944 25.8304 12.8821 26.202 12.7582C26.5735 12.5931 26.9656 12.3042 27.3784 11.8914C27.8325 11.4786 28.2247 10.9419 28.5549 10.2814C28.8852 9.57968 29.0503 8.69216 29.0503 7.61888C29.0503 6.09152 28.6375 4.91504 27.8119 4.08944C27.0276 3.22256 25.7892 2.78912 24.0967 2.78912C21.785 2.78912 19.6178 3.4496 17.5951 4.77056C15.6136 6.05024 13.8799 7.74272 12.3938 9.848C10.9077 11.9533 9.73124 14.3475 8.86436 17.0307C8.03876 19.6726 7.62595 22.3558 7.62595 25.0803C7.62595 28.3002 8.24516 30.9214 9.48356 32.9442C10.722 34.9256 12.5383 35.9163 14.9325 35.9163C17.5332 35.9163 19.8242 34.6573 21.8056 32.1392C23.8284 29.6211 25.5002 25.9266 26.8212 21.0555L32.8274 21.1174Z" fill="#831843"/>
<path d="M61.7948 16.04L57.2747 37.0928C57.0683 37.9184 56.9651 38.8472 56.9651 39.8792C56.9651 40.581 57.0889 41.2208 57.3366 41.7987C57.5843 42.3766 58.1003 42.6656 58.8846 42.6656C59.8753 42.6656 60.866 42.067 61.8567 40.8699C62.8887 39.6728 63.8588 38.0216 64.767 35.9163H67.058C66.0673 38.517 65.0766 40.581 64.0859 42.1083C63.0951 43.5944 62.1251 44.7296 61.1756 45.5139C60.2675 46.2982 59.3799 46.7936 58.5131 47C57.6875 47.2477 56.9444 47.3715 56.2839 47.3715C54.9217 47.3715 53.7865 46.8968 52.8783 45.9474C52.0115 44.9979 51.4955 43.4499 51.3303 41.3034C50.3809 42.9958 49.06 44.4406 47.3675 45.6378C45.7163 46.7936 43.9 47.3715 41.9185 47.3715C40.9278 47.3715 39.9577 47.2064 39.0083 46.8762C38.0588 46.5046 37.2126 45.9267 36.4696 45.1424C35.7265 44.3168 35.1279 43.2848 34.6739 42.0464C34.2198 40.7667 33.9927 39.2187 33.9927 37.4024C33.9927 35.9989 34.1372 34.4922 34.4262 32.8822C34.7564 31.2723 35.2105 29.6624 35.7884 28.0525C36.3663 26.4426 37.1094 24.8946 38.0175 23.4085C38.9257 21.9224 39.9577 20.6221 41.1135 19.5075C42.2694 18.3517 43.5697 17.4435 45.0145 16.783C46.5006 16.0813 48.1105 15.7304 49.8443 15.7304C50.835 15.7304 51.8464 15.9574 52.8783 16.4115C53.9103 16.8656 54.5915 17.7325 54.9217 19.0122L55.5409 16.04H61.7948ZM44.5191 42.6656C45.1796 42.6656 45.8607 42.5005 46.5625 42.1702C47.2643 41.7987 47.9247 41.324 48.5439 40.7461C49.2044 40.1269 49.7823 39.4045 50.2777 38.5789C50.7731 37.7533 51.1239 36.8658 51.3303 35.9163L54.3025 21.8605C54.1787 21.1587 53.8691 20.5395 53.3737 20.0029C52.8784 19.425 52.1559 19.136 51.2065 19.136C49.514 19.136 48.0073 19.7552 46.6863 20.9936C45.3654 22.232 44.2508 23.7387 43.3427 25.5138C42.4345 27.2888 41.7534 29.1877 41.2993 31.2104C40.8452 33.2331 40.6182 35.0082 40.6182 36.5355C40.6182 38.8885 40.9691 40.4984 41.6708 41.3653C42.3726 42.2322 43.322 42.6656 44.5191 42.6656Z" fill="#831843"/>
<path d="M77.9158 3.656L70.6712 37.0928C70.4648 37.9184 70.3616 38.8472 70.3616 39.8792C70.3616 40.581 70.4854 41.2208 70.7331 41.7987C70.9808 42.3766 71.4968 42.6656 72.2811 42.6656C73.2718 42.6656 74.2625 42.067 75.2532 40.8699C76.2852 39.6728 77.2553 38.0216 78.1635 35.9163H80.4545C79.4638 38.517 78.4731 40.581 77.4824 42.1083C76.4916 43.5944 75.5216 44.7296 74.5721 45.5139C73.664 46.2982 72.7764 46.7936 71.9096 47C71.084 47.2477 70.3409 47.3715 69.6804 47.3715C68.6072 47.3715 67.7196 47.1858 67.0179 46.8142C66.3161 46.4427 65.7588 45.9474 65.346 45.3282C64.9332 44.709 64.6236 43.9866 64.4172 43.161C64.2521 42.3354 64.1696 41.4478 64.1696 40.4984C64.1696 39.7554 64.2108 38.9917 64.2934 38.2074C64.4172 37.423 64.5617 36.6594 64.7268 35.9163L71.4761 4.52288L77.9158 3.656Z" fill="#831843"/>
<path d="M99.8863 22.1082C99.8863 25.617 98.5034 28.4653 95.7376 30.6531C93.0132 32.7997 89.236 34.1206 84.4063 34.616C84.365 34.9462 84.3444 35.2765 84.3444 35.6067C84.3444 35.8957 84.3444 36.2053 84.3444 36.5355C84.3444 38.6408 84.7365 40.1888 85.5208 41.1795C86.3464 42.1702 87.75 42.6656 89.7314 42.6656C91.7128 42.6656 93.6736 42.1496 95.6138 41.1176C97.554 40.0856 99.329 38.3518 100.939 35.9163H102.92C102.095 37.4437 101.104 38.9091 99.9482 40.3126C98.7923 41.6749 97.5127 42.8926 96.1092 43.9659C94.7056 44.9979 93.1989 45.8235 91.589 46.4427C90.0204 47.0619 88.4104 47.3715 86.7592 47.3715C85.5621 47.3715 84.4063 47.1858 83.2917 46.8142C82.2184 46.4427 81.2483 45.8648 80.3815 45.0805C79.5559 44.2962 78.8748 43.2848 78.3381 42.0464C77.8428 40.7667 77.5951 39.2394 77.5951 37.4643C77.5951 36.3085 77.7189 34.9669 77.9666 33.4395C78.2143 31.9122 78.5858 30.3435 79.0812 28.7336C79.6178 27.1237 80.2989 25.5344 81.1245 23.9658C81.9914 22.3971 83.0028 21.0142 84.1586 19.8171C85.3144 18.5787 86.6354 17.588 88.1215 16.845C89.6488 16.1019 91.3619 15.7304 93.2608 15.7304C94.1277 15.7304 94.9533 15.8336 95.7376 16.04C96.522 16.2051 97.2237 16.5354 97.8429 17.0307C98.4621 17.4848 98.9575 18.1246 99.329 18.9502C99.7005 19.7758 99.8863 20.8285 99.8863 22.1082ZM93.8181 18.7645C92.6623 18.7645 91.589 19.1773 90.5983 20.0029C89.6076 20.7872 88.72 21.8192 87.9357 23.0989C87.1927 24.3786 86.5322 25.8234 85.9543 27.4333C85.4176 29.0019 85.0048 30.5912 84.7159 32.2011C88.1834 31.6645 90.9491 30.4467 93.0131 28.5478C95.0771 26.649 96.1092 24.296 96.1092 21.489C96.1092 20.7872 95.9647 20.168 95.6757 19.6314C95.428 19.0534 94.8088 18.7645 93.8181 18.7645Z" fill="#831843"/>
<path d="M111.352 16.04L110.237 21.1174C110.815 20.457 111.414 19.8171 112.033 19.1979C112.652 18.5374 113.292 17.9595 113.952 17.4642C114.654 16.9275 115.376 16.5147 116.119 16.2258C116.863 15.8955 117.667 15.7304 118.534 15.7304C119.773 15.7304 120.66 16.0194 121.197 16.5973C121.734 17.1339 122.002 17.815 122.002 18.6406C122.002 19.425 121.857 20.0854 121.568 20.6221C121.321 21.1174 121.011 21.5302 120.64 21.8605C120.268 22.1494 119.876 22.3558 119.463 22.4797C119.05 22.6035 118.699 22.6654 118.411 22.6654C118.039 22.6654 117.75 22.5829 117.544 22.4178C117.379 22.2526 117.193 22.0875 116.986 21.9224C116.821 21.716 116.615 21.5302 116.367 21.3651C116.119 21.2 115.769 21.1174 115.315 21.1174C114.406 21.1174 113.436 21.4477 112.404 22.1082C111.414 22.7274 110.485 23.4085 109.618 24.1515L104.726 47H98.5342L105.098 16.04H111.352Z" fill="#831843"/>
<path d="M126.456 7.12352C126.456 6.00896 126.848 5.03888 127.633 4.21328C128.417 3.38768 129.387 2.97488 130.543 2.97488C131.658 2.97488 132.628 3.38768 133.453 4.21328C134.279 5.03888 134.692 6.00896 134.692 7.12352C134.692 8.27936 134.279 9.24944 133.453 10.0338C132.628 10.8181 131.658 11.2102 130.543 11.2102C129.387 11.2102 128.417 10.8181 127.633 10.0338C126.848 9.24944 126.456 8.27936 126.456 7.12352ZM132.215 16.04L127.695 37.0928C127.488 37.9184 127.385 38.8472 127.385 39.8792C127.385 40.581 127.509 41.2208 127.757 41.7987C128.004 42.3766 128.52 42.6656 129.305 42.6656C130.295 42.6656 131.286 42.067 132.277 40.8699C133.309 39.6728 134.279 38.0216 135.187 35.9163H137.478C136.487 38.517 135.497 40.581 134.506 42.1083C133.515 43.5944 132.545 44.7296 131.596 45.5139C130.687 46.2982 129.8 46.7936 128.933 47C128.107 47.2477 127.364 47.3715 126.704 47.3715C125.631 47.3715 124.743 47.1858 124.041 46.8142C123.34 46.4427 122.782 45.9474 122.37 45.3282C121.957 44.709 121.647 43.9866 121.441 43.161C121.276 42.3354 121.193 41.4478 121.193 40.4984C121.193 39.7554 121.234 38.9917 121.317 38.2074C121.441 37.423 121.585 36.6594 121.75 35.9163L125.961 16.04H132.215Z" fill="#831843"/>
<path d="M162.233 16.04L157.713 37.0928C157.631 37.5469 157.569 38.001 157.527 38.455C157.486 38.9091 157.466 39.3426 157.466 39.7554C157.466 40.6222 157.61 41.324 157.899 41.8606C158.229 42.3973 158.807 42.6656 159.633 42.6656C159.922 42.6656 160.211 42.645 160.5 42.6037C160.83 42.5624 161.201 42.4592 161.614 42.2941C161.119 44.2755 160.458 45.6171 159.633 46.3189C158.807 47.0206 157.837 47.3715 156.723 47.3715C155.36 47.3715 154.225 46.8968 153.317 45.9474C152.45 44.9979 151.934 43.4499 151.769 41.3034C150.82 42.9958 149.499 44.4406 147.806 45.6378C146.155 46.7936 144.339 47.3715 142.357 47.3715C141.366 47.3715 140.396 47.2064 139.447 46.8762C138.497 46.5046 137.651 45.9267 136.908 45.1424C136.165 44.3168 135.567 43.2848 135.112 42.0464C134.658 40.7667 134.431 39.2187 134.431 37.4024C134.431 35.9989 134.576 34.4922 134.865 32.8822C135.195 31.2723 135.649 29.6624 136.227 28.0525C136.805 26.4426 137.548 24.8946 138.456 23.4085C139.364 21.9224 140.396 20.6221 141.552 19.5075C142.708 18.3517 144.008 17.4435 145.453 16.783C146.939 16.0813 148.549 15.7304 150.283 15.7304C151.274 15.7304 152.285 15.9574 153.317 16.4115C154.349 16.8656 155.03 17.7325 155.36 19.0122L155.979 16.04H162.233ZM144.958 42.6656C145.618 42.6656 146.299 42.5005 147.001 42.1702C147.703 41.7987 148.363 41.324 148.983 40.7461C149.643 40.1269 150.221 39.4045 150.716 38.5789C151.212 37.7533 151.563 36.8658 151.769 35.9163L154.741 21.8605C154.617 21.1587 154.308 20.5395 153.812 20.0029C153.317 19.425 152.595 19.136 151.645 19.136C149.953 19.136 148.446 19.7552 147.125 20.9936C145.804 22.232 144.689 23.7387 143.781 25.5138C142.873 27.2888 142.192 29.1877 141.738 31.2104C141.284 33.2331 141.057 35.0082 141.057 36.5355C141.057 38.8885 141.408 40.4984 142.109 41.3653C142.811 42.2322 143.761 42.6656 144.958 42.6656Z" fill="#831843"/>
</svg>
