<svg width="75" height="19" viewBox="0 0 75 19" fill="none" xmlns="http://www.w3.org/2000/svg">
<path d="M19.8242 13.6523C19.457 14.2461 18.9609 14.8359 18.3359 15.4219C17.7109 16 16.9961 16.5234 16.1914 16.9922C15.3945 17.4531 14.5234 17.8242 13.5781 18.1055C12.6328 18.3945 11.6562 18.5391 10.6484 18.5391C9.85938 18.5391 9.07031 18.4688 8.28125 18.3281C7.5 18.1875 6.74609 17.9727 6.01953 17.6836C5.30078 17.3945 4.62891 17.0312 4.00391 16.5938C3.38672 16.1484 2.84766 15.625 2.38672 15.0234C1.92578 14.4219 1.5625 13.7383 1.29688 12.9727C1.03906 12.207 0.910156 11.3555 0.910156 10.418C0.910156 9.50391 1.04297 8.63672 1.30859 7.81641C1.58203 6.99609 1.96094 6.23828 2.44531 5.54297C2.92969 4.83984 3.50391 4.20703 4.16797 3.64453C4.83203 3.08203 5.55859 2.60547 6.34766 2.21484C7.13672 1.81641 7.96875 1.51172 8.84375 1.30078C9.71875 1.08984 10.6133 0.984375 11.5273 0.984375C12.5352 0.984375 13.4805 1.10547 14.3633 1.34766C15.2539 1.58203 16.0312 1.91797 16.6953 2.35547C17.3594 2.78516 17.8828 3.30469 18.2656 3.91406C18.6562 4.51562 18.8516 5.1875 18.8516 5.92969C18.8516 6.61719 18.6914 7.27344 18.3711 7.89844C18.0508 8.51562 17.6094 9.05859 17.0469 9.52734C16.4922 9.99609 15.8398 10.3672 15.0898 10.6406C14.3477 10.9141 13.5547 11.0508 12.7109 11.0508C12.0312 11.0508 11.4297 10.9688 10.9062 10.8047C10.3828 10.6328 9.94531 10.3984 9.59375 10.1016C9.24219 9.80469 8.97656 9.45703 8.79688 9.05859C8.61719 8.66016 8.52734 8.23047 8.52734 7.76953C8.52734 7.38672 8.58594 7.03906 8.70312 6.72656C8.82812 6.40625 8.96094 6.13281 9.10156 5.90625C9.25 5.67969 9.38672 5.50391 9.51172 5.37891C9.64453 5.24609 9.71875 5.17188 9.73438 5.15625C9.77344 5.11719 9.81641 5.09375 9.86328 5.08594C9.91797 5.07031 9.96875 5.0625 10.0156 5.0625C10.1406 5.0625 10.2461 5.10156 10.332 5.17969C10.418 5.25781 10.4609 5.35938 10.4609 5.48438C10.4609 5.625 10.4102 5.74219 10.3086 5.83594C10.293 5.84375 10.2383 5.89844 10.1445 6C10.0508 6.09375 9.94922 6.22656 9.83984 6.39844C9.73047 6.5625 9.62891 6.76172 9.53516 6.99609C9.44922 7.23047 9.40625 7.48828 9.40625 7.76953C9.40625 8.21484 9.50391 8.58984 9.69922 8.89453C9.90234 9.19922 10.1641 9.44922 10.4844 9.64453C10.8047 9.83203 11.1602 9.96875 11.5508 10.0547C11.9414 10.1328 12.332 10.1719 12.7227 10.1719C13.4492 10.1719 14.1289 10.0547 14.7617 9.82031C15.4023 9.58594 15.9609 9.27344 16.4375 8.88281C16.9141 8.49219 17.2891 8.04297 17.5625 7.53516C17.8359 7.02734 17.9727 6.49609 17.9727 5.94141C17.9727 5.33203 17.8008 4.77734 17.457 4.27734C17.1133 3.76953 16.6484 3.33984 16.0625 2.98828C15.4766 2.62891 14.7891 2.35156 14 2.15625C13.2188 1.96094 12.3828 1.86328 11.4922 1.86328C10.8203 1.86328 10.1133 1.94531 9.37109 2.10938C8.63672 2.26562 7.91016 2.50391 7.19141 2.82422C6.47266 3.14453 5.78516 3.54297 5.12891 4.01953C4.48047 4.49609 3.91016 5.05469 3.41797 5.69531C2.92578 6.32812 2.53125 7.03906 2.23438 7.82812C1.94531 8.61719 1.80078 9.48047 1.80078 10.418C1.80078 11.2695 1.91797 12.0391 2.15234 12.7266C2.39453 13.4141 2.72656 14.0273 3.14844 14.5664C3.57031 15.0977 4.0625 15.5586 4.625 15.9492C5.19531 16.3398 5.80469 16.6641 6.45312 16.9219C7.10938 17.1719 7.79297 17.3594 8.50391 17.4844C9.21484 17.6016 9.92188 17.6602 10.625 17.6602C11.5625 17.6602 12.4648 17.5312 13.332 17.2734C14.1992 17.0078 15 16.6641 15.7344 16.2422C16.4766 15.8125 17.1328 15.332 17.7031 14.8008C18.2734 14.2695 18.7266 13.7344 19.0625 13.1953C19.1016 13.125 19.1562 13.0742 19.2266 13.043C19.2969 13.0039 19.3711 12.9844 19.4492 12.9844C19.582 12.9844 19.6875 13.0312 19.7656 13.125C19.8438 13.2109 19.8828 13.3086 19.8828 13.418C19.8828 13.457 19.8789 13.4961 19.8711 13.5352C19.8633 13.5742 19.8477 13.6133 19.8242 13.6523ZM26.4453 16.7109C26.25 16.7109 26.0781 16.6953 25.9297 16.6641C25.8125 16.8984 25.6719 17.1172 25.5078 17.3203C25.3438 17.5156 25.1523 17.6875 24.9336 17.8359C24.7227 17.9844 24.4844 18.1016 24.2188 18.1875C23.9531 18.2734 23.6641 18.3164 23.3516 18.3164C22.9844 18.3164 22.6484 18.25 22.3438 18.1172C22.0391 17.9922 21.7734 17.8164 21.5469 17.5898C21.3203 17.3555 21.1445 17.0781 21.0195 16.7578C20.8945 16.4297 20.832 16.0703 20.832 15.6797C20.832 15.1797 20.9219 14.7461 21.1016 14.3789C21.2812 14.0039 21.4883 13.6953 21.7227 13.4531C21.957 13.2031 22.1914 13.0195 22.4258 12.9023C22.6602 12.7773 22.8359 12.7148 22.9531 12.7148C23.0859 12.7148 23.1836 12.75 23.2461 12.8203C23.3164 12.8906 23.3516 12.9844 23.3516 13.1016C23.3516 13.2344 23.3086 13.3359 23.2227 13.4062C23.1445 13.4688 23.043 13.5312 22.918 13.5938C22.793 13.6562 22.6602 13.7461 22.5195 13.8633C22.3789 13.9727 22.2461 14.1133 22.1211 14.2852C22.0039 14.457 21.9062 14.6602 21.8281 14.8945C21.75 15.1289 21.7109 15.3906 21.7109 15.6797C21.7109 15.9375 21.75 16.1797 21.8281 16.4062C21.9062 16.625 22.0195 16.8164 22.168 16.9805C22.3164 17.1367 22.4922 17.2617 22.6953 17.3555C22.8984 17.4414 23.125 17.4844 23.375 17.4844C23.8203 17.4844 24.1875 17.3828 24.4766 17.1797C24.7734 16.9688 25 16.7031 25.1562 16.3828C24.6953 16.1406 24.3164 15.7969 24.0195 15.3516C23.7227 14.9062 23.5742 14.4062 23.5742 13.8516C23.5742 13.4062 23.6797 13.043 23.8906 12.7617C24.1094 12.4805 24.3945 12.3398 24.7461 12.3398C24.957 12.3398 25.1562 12.3906 25.3438 12.4922C25.5312 12.5938 25.6953 12.7539 25.8359 12.9727C25.9844 13.1914 26.1016 13.4727 26.1875 13.8164C26.2734 14.1602 26.3164 14.5703 26.3164 15.0469C26.3164 15.2969 26.2852 15.5586 26.2227 15.832C26.2695 15.8398 26.3164 15.8438 26.3633 15.8438C26.4102 15.8438 26.4609 15.8438 26.5156 15.8438C26.7812 15.8438 27.0195 15.8125 27.2305 15.75C27.4414 15.6875 27.6328 15.5938 27.8047 15.4688C27.9766 15.3438 28.1289 15.1836 28.2617 14.9883C28.4023 14.793 28.5352 14.5664 28.6602 14.3086C28.6836 14.2617 28.7344 14.2188 28.8125 14.1797C28.8906 14.1328 28.9688 14.1094 29.0469 14.1094C29.1484 14.1094 29.2422 14.1523 29.3281 14.2383C29.4219 14.3164 29.4688 14.4219 29.4688 14.5547C29.4688 14.6172 29.4531 14.6875 29.4219 14.7656C29.3906 14.8359 29.3594 14.9023 29.3281 14.9648C29.1953 15.1992 29.0391 15.4258 28.8594 15.6445C28.6875 15.8555 28.4805 16.043 28.2383 16.207C28.0039 16.3633 27.7383 16.4883 27.4414 16.582C27.1445 16.6758 26.8125 16.7188 26.4453 16.7109ZM24.4414 13.7578C24.4414 13.9062 24.4609 14.0625 24.5 14.2266C24.5391 14.3906 24.5977 14.5547 24.6758 14.7188C24.7617 14.875 24.8633 15.0273 24.9805 15.1758C25.1055 15.3164 25.25 15.4375 25.4141 15.5391C25.4375 15.375 25.4492 15.2148 25.4492 15.0586C25.4492 14.8477 25.4336 14.6328 25.4023 14.4141C25.3711 14.1953 25.3242 13.9961 25.2617 13.8164C25.207 13.6289 25.1367 13.4805 25.0508 13.3711C24.9648 13.2539 24.8633 13.1953 24.7461 13.1953C24.6992 13.1953 24.6367 13.2305 24.5586 13.3008C24.4805 13.3711 24.4414 13.5234 24.4414 13.7578ZM31.2383 16.9453C31.3633 16.6875 31.5078 16.4062 31.6719 16.1016C31.8359 15.7891 32.0117 15.4766 32.1992 15.1641C32.3867 14.8438 32.582 14.5273 32.7852 14.2148C32.9961 13.9023 33.2148 13.6055 33.4414 13.3242C33.668 13.0508 33.8945 12.8555 34.1211 12.7383C34.3555 12.6133 34.5742 12.5508 34.7773 12.5508C35.1836 12.5508 35.4844 12.6992 35.6797 12.9961C35.875 13.293 35.9727 13.6602 35.9727 14.0977C35.9727 14.1992 35.9648 14.3242 35.9492 14.4727C35.9414 14.6133 35.9297 14.7656 35.9141 14.9297C35.9062 15.0938 35.8945 15.2617 35.8789 15.4336C35.8711 15.5977 35.8672 15.7539 35.8672 15.9023C35.8672 16.0898 35.875 16.2695 35.8906 16.4414C35.9141 16.6133 35.9531 16.7656 36.0078 16.8984C36.0625 17.0234 36.1406 17.125 36.2422 17.2031C36.3438 17.2734 36.4766 17.3086 36.6406 17.3086C36.9375 17.3086 37.2266 17.1953 37.5078 16.9688C37.7891 16.7344 38.0469 16.4609 38.2812 16.1484C38.5234 15.8281 38.7305 15.5039 38.9023 15.1758C39.082 14.8477 39.2148 14.582 39.3008 14.3789C39.3398 14.293 39.3945 14.2266 39.4648 14.1797C39.543 14.1328 39.625 14.1094 39.7109 14.1094C39.8438 14.1094 39.9492 14.1602 40.0273 14.2617C40.1133 14.3555 40.1562 14.457 40.1562 14.5664C40.1562 14.6211 40.1445 14.6758 40.1211 14.7305C40.0898 14.793 40.0273 14.9219 39.9336 15.1172C39.8398 15.3125 39.7148 15.5391 39.5586 15.7969C39.4102 16.0469 39.2344 16.3164 39.0312 16.6055C38.8281 16.8867 38.6016 17.1445 38.3516 17.3789C38.1094 17.6133 37.8438 17.8086 37.5547 17.9648C37.2734 18.1211 36.9766 18.1992 36.6641 18.1992C36.3125 18.1992 36.0273 18.1328 35.8086 18C35.5898 17.8594 35.418 17.6797 35.293 17.4609C35.168 17.2344 35.082 16.9883 35.0352 16.7227C34.9961 16.4492 34.9766 16.1758 34.9766 15.9023C34.9766 15.7852 34.9805 15.6523 34.9883 15.5039C35.0039 15.3555 35.0195 15.1992 35.0352 15.0352C35.0586 14.8711 35.0742 14.707 35.082 14.543C35.0977 14.3789 35.1055 14.2227 35.1055 14.0742C35.1055 13.8242 35.0664 13.6562 34.9883 13.5703C34.9102 13.4766 34.8398 13.4297 34.7773 13.4297C34.6523 13.4297 34.5078 13.5039 34.3438 13.6523C34.1875 13.793 34.0195 13.9805 33.8398 14.2148C33.668 14.4492 33.4883 14.7148 33.3008 15.0117C33.1211 15.3008 32.9492 15.5898 32.7852 15.8789C32.6289 16.168 32.4805 16.4453 32.3398 16.7109C32.207 16.9688 32.1016 17.1836 32.0234 17.3555C31.8672 17.6836 31.7109 17.9023 31.5547 18.0117C31.3984 18.1289 31.2383 18.1875 31.0742 18.1875C30.8477 18.1875 30.6641 18.1211 30.5234 17.9883C30.3906 17.8477 30.3242 17.6523 30.3242 17.4023C30.3242 17.3477 30.332 17.2422 30.3477 17.0859C30.3633 16.9219 30.3828 16.7305 30.4062 16.5117C30.4297 16.2852 30.4531 16.043 30.4766 15.7852C30.5 15.5273 30.5234 15.2734 30.5469 15.0234C30.5703 14.7656 30.5898 14.5273 30.6055 14.3086C30.6211 14.0898 30.6289 13.9062 30.6289 13.7578C30.6289 13.5625 30.6211 13.375 30.6055 13.1953C30.5898 13.0156 30.5586 12.9062 30.5117 12.8672C30.4414 12.8906 30.3164 13.0391 30.1367 13.3125C29.957 13.5781 29.7266 14.0508 29.4453 14.7305C29.4062 14.8164 29.3477 14.8828 29.2695 14.9297C29.1914 14.9766 29.1094 15 29.0234 15C28.8906 15 28.7852 14.957 28.707 14.8711C28.6289 14.7773 28.5898 14.6719 28.5898 14.5547C28.5898 14.5 28.6016 14.4414 28.625 14.3789C28.9766 13.543 29.3047 12.9297 29.6094 12.5391C29.9219 12.1406 30.2305 11.9414 30.5352 11.9414C30.7148 11.9414 30.8672 11.9883 30.9922 12.082C31.1172 12.168 31.2148 12.2852 31.2852 12.4336C31.3633 12.582 31.418 12.7461 31.4492 12.9258C31.4883 13.1055 31.5078 13.2891 31.5078 13.4766C31.5078 13.6172 31.4961 13.8359 31.4727 14.1328C31.457 14.4297 31.4336 14.75 31.4023 15.0938C31.3711 15.4297 31.3398 15.7656 31.3086 16.1016C31.2852 16.4375 31.2617 16.7188 31.2383 16.9453ZM48.8164 6.26953C48.8164 6.39453 48.7734 6.49609 48.6875 6.57422C48.6016 6.64453 48.4961 6.67969 48.3711 6.67969H42.4297V6.80859C42.4297 7.28516 42.3945 7.79297 42.3242 8.33203C42.2539 8.87109 42.1562 9.41016 42.0312 9.94922C41.9141 10.4805 41.7773 11 41.6211 11.5078C41.4727 12.0156 41.3164 12.4844 41.1523 12.9141C40.9961 13.3438 40.8398 13.7188 40.6836 14.0391C40.5273 14.3516 40.3867 14.5859 40.2617 14.7422C40.3633 15.1016 40.4844 15.4375 40.625 15.75C40.7656 16.0547 40.9219 16.3242 41.0938 16.5586C41.2734 16.7852 41.4648 16.9648 41.668 17.0977C41.8711 17.2305 42.0898 17.2969 42.3242 17.2969C42.5977 17.2969 42.8672 17.1836 43.1328 16.957C43.4062 16.7227 43.6562 16.4492 43.8828 16.1367C44.1172 15.8164 44.3203 15.4961 44.4922 15.1758C44.6719 14.8477 44.8008 14.5859 44.8789 14.3906C44.957 14.2031 45.0938 14.1094 45.2891 14.1094C45.4219 14.1094 45.5273 14.1562 45.6055 14.25C45.6914 14.3438 45.7344 14.4453 45.7344 14.5547C45.7344 14.6094 45.7227 14.6641 45.6992 14.7188C45.6758 14.7734 45.6172 14.8984 45.5234 15.0938C45.4375 15.2891 45.3203 15.5156 45.1719 15.7734C45.0312 16.0312 44.8633 16.3047 44.668 16.5938C44.4805 16.875 44.2656 17.1328 44.0234 17.3672C43.7891 17.6016 43.5352 17.7969 43.2617 17.9531C42.9883 18.1094 42.6992 18.1875 42.3945 18.1875C41.8555 18.1875 41.3711 18.0117 40.9414 17.6602C40.5117 17.3086 40.1445 16.8164 39.8398 16.1836C39.543 15.5508 39.3164 14.8008 39.1602 13.9336C39.0039 13.0664 38.9258 12.1172 38.9258 11.0859C38.9258 10.8281 38.9297 10.5273 38.9375 10.1836C38.9453 9.83203 38.9609 9.46484 38.9844 9.08203C39.0078 8.69141 39.043 8.29297 39.0898 7.88672C39.1367 7.47266 39.1992 7.07031 39.2773 6.67969H35.0703C34.9453 6.67969 34.8398 6.64453 34.7539 6.57422C34.668 6.49609 34.625 6.39453 34.625 6.26953C34.625 6.14453 34.668 6.04688 34.7539 5.97656C34.8398 5.89844 34.9453 5.85938 35.0703 5.85938H39.4766C39.5547 5.57812 39.6445 5.32031 39.7461 5.08594C39.8555 4.85156 39.9766 4.64844 40.1094 4.47656C40.25 4.30469 40.4023 4.17188 40.5664 4.07812C40.7383 3.97656 40.9258 3.92578 41.1289 3.92578C41.3242 3.92578 41.4922 3.97656 41.6328 4.07812C41.7812 4.17188 41.9062 4.30469 42.0078 4.47656C42.1094 4.64844 42.1875 4.85156 42.2422 5.08594C42.3047 5.32031 42.3516 5.57812 42.3828 5.85938H48.3711C48.4961 5.85938 48.6016 5.89844 48.6875 5.97656C48.7734 6.04688 48.8164 6.14453 48.8164 6.26953ZM39.9922 13.5703C40.2266 13.0547 40.4375 12.5 40.625 11.9062C40.8203 11.3047 40.9844 10.6992 41.1172 10.0898C41.2578 9.48047 41.3633 8.88281 41.4336 8.29688C41.5117 7.71094 41.5508 7.17188 41.5508 6.67969H40.168C40.0586 7.16406 39.9688 7.76562 39.8984 8.48438C39.8359 9.19531 39.8047 10.0625 39.8047 11.0859C39.8047 11.6562 39.8203 12.1367 39.8516 12.5273C39.8828 12.9102 39.9297 13.2578 39.9922 13.5703ZM41.082 4.80469C41.0117 4.80469 40.9102 4.88281 40.7773 5.03906C40.6445 5.1875 40.5117 5.46094 40.3789 5.85938H41.5039C41.4648 5.53125 41.4062 5.27344 41.3281 5.08594C41.2578 4.89844 41.1758 4.80469 41.082 4.80469ZM40.1797 14.4141V14.4258V14.4141ZM53.9844 14.7305C53.9531 14.793 53.8867 14.9258 53.7852 15.1289C53.6914 15.3242 53.5664 15.5508 53.4102 15.8086C53.2617 16.0664 53.0859 16.3359 52.8828 16.6172C52.6797 16.8984 52.4531 17.1562 52.2031 17.3906C51.9531 17.625 51.6836 17.8203 51.3945 17.9766C51.1055 18.125 50.8008 18.1992 50.4805 18.1992C50.0273 18.1992 49.6445 18.0547 49.332 17.7656C49.0273 17.4766 48.8047 17.1133 48.6641 16.6758C48.3984 17.1211 48.082 17.4766 47.7148 17.7422C47.3477 18 46.9805 18.1289 46.6133 18.1289C46.3242 18.1289 46.0625 18.0781 45.8281 17.9766C45.5938 17.8672 45.3945 17.7188 45.2305 17.5312C45.0664 17.3359 44.9375 17.1094 44.8438 16.8516C44.7578 16.5938 44.7148 16.3125 44.7148 16.0078C44.7148 15.3984 44.8164 14.8633 45.0195 14.4023C45.2305 13.9336 45.4961 13.543 45.8164 13.2305C46.1367 12.918 46.4883 12.6836 46.8711 12.5273C47.2617 12.3711 47.6367 12.293 47.9961 12.293C48.2383 12.293 48.4609 12.3281 48.6641 12.3984C48.8672 12.4609 49.0391 12.5312 49.1797 12.6094C49.3281 12.6875 49.4414 12.7617 49.5195 12.832C49.5977 12.8945 49.6406 12.9297 49.6484 12.9375C49.7344 13.0391 49.7773 13.1445 49.7773 13.2539C49.7773 13.3711 49.7344 13.4766 49.6484 13.5703C49.5625 13.6562 49.4609 13.6992 49.3438 13.6992C49.2188 13.6992 49.1133 13.6562 49.0273 13.5703C49.0117 13.5547 48.9766 13.5273 48.9219 13.4883C48.8672 13.4414 48.793 13.3945 48.6992 13.3477C48.6055 13.3008 48.4922 13.2617 48.3594 13.2305C48.2344 13.1914 48.0898 13.1719 47.9258 13.1719C47.6836 13.1719 47.4258 13.2266 47.1523 13.3359C46.8789 13.4453 46.6289 13.6172 46.4023 13.8516C46.1758 14.0781 45.9844 14.3672 45.8281 14.7188C45.6797 15.0625 45.6055 15.4727 45.6055 15.9492C45.6055 16.0977 45.6211 16.25 45.6523 16.4062C45.6836 16.5547 45.7383 16.6914 45.8164 16.8164C45.8945 16.9414 46 17.043 46.1328 17.1211C46.2656 17.1992 46.4297 17.2383 46.625 17.2383C46.7656 17.2383 46.9258 17.1914 47.1055 17.0977C47.293 17.0039 47.4688 16.8594 47.6328 16.6641C47.8047 16.4688 47.957 16.2227 48.0898 15.9258C48.2305 15.6289 48.3281 15.2773 48.3828 14.8711C48.3984 14.7617 48.4492 14.6719 48.5352 14.6016C48.6211 14.5234 48.7227 14.4844 48.8398 14.4844C48.9492 14.4844 49.043 14.5273 49.1211 14.6133C49.207 14.6992 49.2539 14.7969 49.2617 14.9062C49.2695 15.0547 49.2852 15.2656 49.3086 15.5391C49.332 15.8047 49.3828 16.0703 49.4609 16.3359C49.5469 16.6016 49.6719 16.832 49.8359 17.0273C50 17.2227 50.2266 17.3203 50.5156 17.3203C50.7031 17.3203 50.8867 17.2695 51.0664 17.168C51.2539 17.0664 51.4336 16.9336 51.6055 16.7695C51.7852 16.5977 51.9531 16.4062 52.1094 16.1953C52.2734 15.9766 52.4219 15.7578 52.5547 15.5391C52.6875 15.3203 52.8047 15.1094 52.9062 14.9062C53.0078 14.7031 53.0938 14.5273 53.1641 14.3789C53.2031 14.293 53.2578 14.2266 53.3281 14.1797C53.4062 14.1328 53.4883 14.1094 53.5742 14.1094C53.707 14.1094 53.8125 14.1602 53.8906 14.2617C53.9766 14.3555 54.0195 14.457 54.0195 14.5664C54.0195 14.6211 54.0078 14.6758 53.9844 14.7305ZM60.8398 14.7539C60.793 14.8398 60.7109 14.9961 60.5938 15.2227C60.4844 15.4492 60.332 15.707 60.1367 15.9961C59.9492 16.2773 59.7227 16.5703 59.457 16.875C59.1914 17.1797 58.8867 17.4609 58.543 17.7188C58.1992 17.9688 57.8125 18.1758 57.3828 18.3398C56.9609 18.5039 56.5 18.5859 56 18.5859C55.5547 18.5859 55.1602 18.5039 54.8164 18.3398C54.4727 18.1836 54.1797 17.9609 53.9375 17.6719C53.6953 17.375 53.5117 17.0273 53.3867 16.6289C53.2617 16.2305 53.1992 15.7891 53.1992 15.3047C53.1992 14.8359 53.2656 14.3984 53.3984 13.9922C53.5312 13.5781 53.7109 13.2188 53.9375 12.9141C54.1719 12.6094 54.4414 12.3711 54.7461 12.1992C55.0508 12.0195 55.375 11.9297 55.7188 11.9297C55.9766 11.9297 56.2109 11.9766 56.4219 12.0703C56.6328 12.1562 56.8086 12.2734 56.9492 12.4219C57.0977 12.5703 57.2109 12.7344 57.2891 12.9141C57.375 13.0938 57.418 13.2734 57.418 13.4531C57.418 13.625 57.3945 13.7852 57.3477 13.9336C57.3086 14.082 57.2539 14.2148 57.1836 14.332C57.1211 14.4414 57.0469 14.5312 56.9609 14.6016C56.875 14.6641 56.7891 14.6953 56.7031 14.6953C56.5703 14.6953 56.4609 14.6523 56.375 14.5664C56.2969 14.4805 56.2578 14.375 56.2578 14.25C56.2578 14.1875 56.2695 14.1328 56.293 14.0859C56.3242 14.0391 56.3555 13.9922 56.3867 13.9453C56.4258 13.8906 56.457 13.8281 56.4805 13.7578C56.5117 13.6797 56.5273 13.582 56.5273 13.4648C56.5273 13.3008 56.4492 13.1523 56.293 13.0195C56.1445 12.8867 55.9531 12.8203 55.7188 12.8203C55.5 12.8203 55.2891 12.8867 55.0859 13.0195C54.8906 13.1523 54.7188 13.332 54.5703 13.5586C54.4219 13.7773 54.3008 14.0391 54.207 14.3438C54.1211 14.6406 54.0781 14.957 54.0781 15.293C54.0781 15.6133 54.1172 15.918 54.1953 16.207C54.2734 16.4961 54.3906 16.7539 54.5469 16.9805C54.7031 17.1992 54.8984 17.375 55.1328 17.5078C55.375 17.6406 55.6602 17.707 55.9883 17.707C56.4102 17.707 56.8008 17.6328 57.1602 17.4844C57.5195 17.3281 57.8477 17.1328 58.1445 16.8984C58.4414 16.6641 58.7031 16.4102 58.9297 16.1367C59.1562 15.8555 59.3477 15.5938 59.5039 15.3516C59.668 15.1016 59.793 14.8867 59.8789 14.707C59.9727 14.5195 60.0273 14.4023 60.043 14.3555C60.0742 14.2773 60.125 14.2188 60.1953 14.1797C60.2734 14.1328 60.3555 14.1094 60.4414 14.1094C60.5742 14.1094 60.6797 14.1562 60.7578 14.25C60.8438 14.3438 60.8867 14.4492 60.8867 14.5664C60.8867 14.6133 60.8711 14.6758 60.8398 14.7539ZM69.5352 6.26953C69.5352 6.39453 69.4922 6.49609 69.4062 6.57422C69.3203 6.64453 69.2148 6.67969 69.0898 6.67969H63.1484V6.80859C63.1484 7.28516 63.1133 7.79297 63.043 8.33203C62.9727 8.87109 62.875 9.41016 62.75 9.94922C62.6328 10.4805 62.4961 11 62.3398 11.5078C62.1914 12.0156 62.0352 12.4844 61.8711 12.9141C61.7148 13.3438 61.5586 13.7188 61.4023 14.0391C61.2461 14.3516 61.1055 14.5859 60.9805 14.7422C61.082 15.1016 61.2031 15.4375 61.3438 15.75C61.4844 16.0547 61.6406 16.3242 61.8125 16.5586C61.9922 16.7852 62.1836 16.9648 62.3867 17.0977C62.5898 17.2305 62.8086 17.2969 63.043 17.2969C63.3164 17.2969 63.5859 17.1836 63.8516 16.957C64.125 16.7227 64.375 16.4492 64.6016 16.1367C64.8359 15.8164 65.0391 15.4961 65.2109 15.1758C65.3906 14.8477 65.5195 14.5859 65.5977 14.3906C65.6758 14.2031 65.8125 14.1094 66.0078 14.1094C66.1406 14.1094 66.2461 14.1562 66.3242 14.25C66.4102 14.3438 66.4531 14.4453 66.4531 14.5547C66.4531 14.6094 66.4414 14.6641 66.418 14.7188C66.3945 14.7734 66.3359 14.8984 66.2422 15.0938C66.1562 15.2891 66.0391 15.5156 65.8906 15.7734C65.75 16.0312 65.582 16.3047 65.3867 16.5938C65.1992 16.875 64.9844 17.1328 64.7422 17.3672C64.5078 17.6016 64.2539 17.7969 63.9805 17.9531C63.707 18.1094 63.418 18.1875 63.1133 18.1875C62.5742 18.1875 62.0898 18.0117 61.6602 17.6602C61.2305 17.3086 60.8633 16.8164 60.5586 16.1836C60.2617 15.5508 60.0352 14.8008 59.8789 13.9336C59.7227 13.0664 59.6445 12.1172 59.6445 11.0859C59.6445 10.8281 59.6484 10.5273 59.6562 10.1836C59.6641 9.83203 59.6797 9.46484 59.7031 9.08203C59.7266 8.69141 59.7617 8.29297 59.8086 7.88672C59.8555 7.47266 59.918 7.07031 59.9961 6.67969H55.7891C55.6641 6.67969 55.5586 6.64453 55.4727 6.57422C55.3867 6.49609 55.3438 6.39453 55.3438 6.26953C55.3438 6.14453 55.3867 6.04688 55.4727 5.97656C55.5586 5.89844 55.6641 5.85938 55.7891 5.85938H60.1953C60.2734 5.57812 60.3633 5.32031 60.4648 5.08594C60.5742 4.85156 60.6953 4.64844 60.8281 4.47656C60.9688 4.30469 61.1211 4.17188 61.2852 4.07812C61.457 3.97656 61.6445 3.92578 61.8477 3.92578C62.043 3.92578 62.2109 3.97656 62.3516 4.07812C62.5 4.17188 62.625 4.30469 62.7266 4.47656C62.8281 4.64844 62.9062 4.85156 62.9609 5.08594C63.0234 5.32031 63.0703 5.57812 63.1016 5.85938H69.0898C69.2148 5.85938 69.3203 5.89844 69.4062 5.97656C69.4922 6.04688 69.5352 6.14453 69.5352 6.26953ZM60.7109 13.5703C60.9453 13.0547 61.1562 12.5 61.3438 11.9062C61.5391 11.3047 61.7031 10.6992 61.8359 10.0898C61.9766 9.48047 62.082 8.88281 62.1523 8.29688C62.2305 7.71094 62.2695 7.17188 62.2695 6.67969H60.8867C60.7773 7.16406 60.6875 7.76562 60.6172 8.48438C60.5547 9.19531 60.5234 10.0625 60.5234 11.0859C60.5234 11.6562 60.5391 12.1367 60.5703 12.5273C60.6016 12.9102 60.6484 13.2578 60.7109 13.5703ZM61.8008 4.80469C61.7305 4.80469 61.6289 4.88281 61.4961 5.03906C61.3633 5.1875 61.2305 5.46094 61.0977 5.85938H62.2227C62.1836 5.53125 62.125 5.27344 62.0469 5.08594C61.9766 4.89844 61.8945 4.80469 61.8008 4.80469ZM60.8984 14.4141V14.4258V14.4141ZM71.0469 16.7109C70.8516 16.7109 70.6797 16.6953 70.5312 16.6641C70.4141 16.8984 70.2734 17.1172 70.1094 17.3203C69.9453 17.5156 69.7539 17.6875 69.5352 17.8359C69.3242 17.9844 69.0859 18.1016 68.8203 18.1875C68.5547 18.2734 68.2656 18.3164 67.9531 18.3164C67.5859 18.3164 67.25 18.25 66.9453 18.1172C66.6406 17.9922 66.375 17.8164 66.1484 17.5898C65.9219 17.3555 65.7461 17.0781 65.6211 16.7578C65.4961 16.4297 65.4336 16.0703 65.4336 15.6797C65.4336 15.1797 65.5234 14.7461 65.7031 14.3789C65.8828 14.0039 66.0898 13.6953 66.3242 13.4531C66.5586 13.2031 66.793 13.0195 67.0273 12.9023C67.2617 12.7773 67.4375 12.7148 67.5547 12.7148C67.6875 12.7148 67.7852 12.75 67.8477 12.8203C67.918 12.8906 67.9531 12.9844 67.9531 13.1016C67.9531 13.2344 67.9102 13.3359 67.8242 13.4062C67.7461 13.4688 67.6445 13.5312 67.5195 13.5938C67.3945 13.6562 67.2617 13.7461 67.1211 13.8633C66.9805 13.9727 66.8477 14.1133 66.7227 14.2852C66.6055 14.457 66.5078 14.6602 66.4297 14.8945C66.3516 15.1289 66.3125 15.3906 66.3125 15.6797C66.3125 15.9375 66.3516 16.1797 66.4297 16.4062C66.5078 16.625 66.6211 16.8164 66.7695 16.9805C66.918 17.1367 67.0938 17.2617 67.2969 17.3555C67.5 17.4414 67.7266 17.4844 67.9766 17.4844C68.4219 17.4844 68.7891 17.3828 69.0781 17.1797C69.375 16.9688 69.6016 16.7031 69.7578 16.3828C69.2969 16.1406 68.918 15.7969 68.6211 15.3516C68.3242 14.9062 68.1758 14.4062 68.1758 13.8516C68.1758 13.4062 68.2812 13.043 68.4922 12.7617C68.7109 12.4805 68.9961 12.3398 69.3477 12.3398C69.5586 12.3398 69.7578 12.3906 69.9453 12.4922C70.1328 12.5938 70.2969 12.7539 70.4375 12.9727C70.5859 13.1914 70.7031 13.4727 70.7891 13.8164C70.875 14.1602 70.918 14.5703 70.918 15.0469C70.918 15.2969 70.8867 15.5586 70.8242 15.832C70.8711 15.8398 70.918 15.8438 70.9648 15.8438C71.0117 15.8438 71.0625 15.8438 71.1172 15.8438C71.3828 15.8438 71.6211 15.8125 71.832 15.75C72.043 15.6875 72.2344 15.5938 72.4062 15.4688C72.5781 15.3438 72.7305 15.1836 72.8633 14.9883C73.0039 14.793 73.1367 14.5664 73.2617 14.3086C73.2852 14.2617 73.3359 14.2188 73.4141 14.1797C73.4922 14.1328 73.5703 14.1094 73.6484 14.1094C73.75 14.1094 73.8438 14.1523 73.9297 14.2383C74.0234 14.3164 74.0703 14.4219 74.0703 14.5547C74.0703 14.6172 74.0547 14.6875 74.0234 14.7656C73.9922 14.8359 73.9609 14.9023 73.9297 14.9648C73.7969 15.1992 73.6406 15.4258 73.4609 15.6445C73.2891 15.8555 73.082 16.043 72.8398 16.207C72.6055 16.3633 72.3398 16.4883 72.043 16.582C71.7461 16.6758 71.4141 16.7188 71.0469 16.7109ZM69.043 13.7578C69.043 13.9062 69.0625 14.0625 69.1016 14.2266C69.1406 14.3906 69.1992 14.5547 69.2773 14.7188C69.3633 14.875 69.4648 15.0273 69.582 15.1758C69.707 15.3164 69.8516 15.4375 70.0156 15.5391C70.0391 15.375 70.0508 15.2148 70.0508 15.0586C70.0508 14.8477 70.0352 14.6328 70.0039 14.4141C69.9727 14.1953 69.9258 13.9961 69.8633 13.8164C69.8086 13.6289 69.7383 13.4805 69.6523 13.3711C69.5664 13.2539 69.4648 13.1953 69.3477 13.1953C69.3008 13.1953 69.2383 13.2305 69.1602 13.3008C69.082 13.3711 69.043 13.5234 69.043 13.7578Z" fill="#831843"/>
</svg>
