<svg width="63" height="28" viewBox="0 0 63 28" fill="none" xmlns="http://www.w3.org/2000/svg">
<path d="M19.5 6.73828C19.5 6.85547 19.457 6.96094 19.3711 7.05469C19.293 7.14844 19.1914 7.19531 19.0664 7.19531C18.9492 7.19531 18.8477 7.15625 18.7617 7.07812C18.6758 7 18.625 6.89453 18.6094 6.76172C18.6016 6.73047 18.582 6.58203 18.5508 6.31641C18.5273 6.05078 18.4492 5.72656 18.3164 5.34375C18.1914 4.95312 17.9961 4.53906 17.7305 4.10156C17.4648 3.65625 17.0977 3.24609 16.6289 2.87109C16.168 2.49609 15.582 2.18359 14.8711 1.93359C14.1602 1.68359 13.2969 1.55859 12.2812 1.55859C11.3828 1.55859 10.4766 1.69531 9.5625 1.96875C8.65625 2.23438 7.78516 2.61328 6.94922 3.10547C6.11328 3.58984 5.33203 4.17188 4.60547 4.85156C3.87891 5.52344 3.24609 6.26562 2.70703 7.07812C2.17578 7.89062 1.75391 8.75781 1.44141 9.67969C1.13672 10.6016 0.984375 11.5508 0.984375 12.5273C0.984375 13.4102 1.10547 14.168 1.34766 14.8008C1.58984 15.4258 1.92578 15.9375 2.35547 16.3359C2.78516 16.7344 3.28906 17.0273 3.86719 17.2148C4.45312 17.3945 5.08203 17.4844 5.75391 17.4844C6.91797 17.4844 8.00391 17.2852 9.01172 16.8867C10.0273 16.4805 10.9648 15.9375 11.8242 15.2578C12.6914 14.5703 13.4805 13.7734 14.1914 12.8672C14.9023 11.9531 15.5391 10.9922 16.1016 9.98438C16.1641 9.03125 16.2734 8.30469 16.4297 7.80469C16.5938 7.29688 16.8359 7.04297 17.1562 7.04297C17.3359 7.04297 17.4844 7.11719 17.6016 7.26562C17.7266 7.41406 17.7891 7.60547 17.7891 7.83984C17.7891 8.09766 17.7227 8.42578 17.5898 8.82422C17.457 9.22266 17.2539 9.68359 16.9805 10.207C16.957 10.5742 16.9453 10.9688 16.9453 11.3906C16.9453 12.0078 16.9688 12.6836 17.0156 13.418C17.0703 14.1523 17.1523 14.9336 17.2617 15.7617C17.5898 15.5977 17.8438 15.4805 18.0234 15.4102C18.2109 15.332 18.3477 15.2812 18.4336 15.2578C18.5195 15.2266 18.5742 15.2148 18.5977 15.2227C18.6211 15.2227 18.6406 15.2227 18.6562 15.2227C18.7734 15.2227 18.875 15.2656 18.9609 15.3516C19.0547 15.4297 19.1016 15.5352 19.1016 15.668C19.1016 15.7617 19.0742 15.8477 19.0195 15.9258C18.9648 15.9961 18.8906 16.0469 18.7969 16.0781C18.7812 16.0859 18.6445 16.1406 18.3867 16.2422C18.1367 16.3359 17.8008 16.4883 17.3789 16.6992C17.418 17.1211 17.4492 17.5469 17.4727 17.9766C17.4961 18.4062 17.5078 18.8398 17.5078 19.2773C17.5078 20.3086 17.4336 21.293 17.2852 22.2305C17.1367 23.168 16.8906 23.9922 16.5469 24.7031C16.2109 25.4141 15.7617 25.9766 15.1992 26.3906C14.6367 26.8125 13.9453 27.0234 13.125 27.0234C12.7188 27.0234 12.3438 26.9531 12 26.8125C11.6562 26.6719 11.3594 26.4766 11.1094 26.2266C10.8594 25.9766 10.6641 25.6758 10.5234 25.3242C10.3828 24.9805 10.3125 24.6016 10.3125 24.1875C10.3125 23.6016 10.4102 23.0234 10.6055 22.4531C10.8086 21.8828 11.0742 21.332 11.4023 20.8008C11.7383 20.2695 12.1211 19.7656 12.5508 19.2891C12.9805 18.8203 13.4219 18.3867 13.875 17.9883C14.3281 17.5898 14.7734 17.2383 15.2109 16.9336C15.6562 16.6289 16.0625 16.3828 16.4297 16.1953C16.3281 15.4141 16.2461 14.6484 16.1836 13.8984C16.1211 13.1406 16.082 12.4062 16.0664 11.6953C15.3867 12.7812 14.6367 13.7383 13.8164 14.5664C13.0039 15.3945 12.1523 16.0898 11.2617 16.6523C10.3711 17.2148 9.45312 17.6406 8.50781 17.9297C7.57031 18.2109 6.63672 18.3516 5.70703 18.3516C4.86328 18.3516 4.09766 18.2266 3.41016 17.9766C2.72266 17.7188 2.13281 17.3438 1.64062 16.8516C1.14844 16.3594 0.769531 15.75 0.503906 15.0234C0.238281 14.2969 0.105469 13.4609 0.105469 12.5156C0.105469 11.5156 0.261719 10.5312 0.574219 9.5625C0.886719 8.58594 1.32031 7.66016 1.875 6.78516C2.42969 5.90234 3.08594 5.08984 3.84375 4.34766C4.60938 3.60547 5.44141 2.96484 6.33984 2.42578C7.24609 1.87891 8.19922 1.45312 9.19922 1.14844C10.207 0.835937 11.2344 0.679688 12.2812 0.679688C13.2891 0.679688 14.1641 0.796875 14.9062 1.03125C15.6484 1.25781 16.2773 1.55078 16.793 1.91016C17.3164 2.26172 17.7383 2.64844 18.0586 3.07031C18.3867 3.48437 18.6445 3.87891 18.832 4.25391C18.9883 4.57422 19.1094 4.88281 19.1953 5.17969C19.2891 5.47656 19.3555 5.73828 19.3945 5.96484C19.4414 6.19141 19.4688 6.375 19.4766 6.51562C19.4922 6.65625 19.5 6.73047 19.5 6.73828ZM16.5352 17.168C16.1445 17.3867 15.7383 17.6484 15.3164 17.9531C14.9023 18.25 14.4961 18.5781 14.0977 18.9375C13.707 19.2969 13.3359 19.6836 12.9844 20.0977C12.6328 20.5117 12.3242 20.9414 12.0586 21.3867C11.793 21.832 11.582 22.2891 11.4258 22.7578C11.2773 23.2344 11.2031 23.7109 11.2031 24.1875C11.2031 24.4844 11.25 24.75 11.3438 24.9844C11.4375 25.2266 11.5703 25.4297 11.7422 25.5938C11.9141 25.7656 12.1172 25.8984 12.3516 25.9922C12.5859 26.0859 12.8438 26.1328 13.125 26.1328C14.2266 26.1328 15.0859 25.5469 15.7031 24.375C16.3203 23.2109 16.6289 21.5078 16.6289 19.2656C16.6289 18.9297 16.6211 18.5859 16.6055 18.2344C16.5898 17.8906 16.5664 17.5352 16.5352 17.168ZM29.4844 14.7305C29.4531 14.793 29.3867 14.9258 29.2852 15.1289C29.1914 15.3242 29.0664 15.5508 28.9102 15.8086C28.7617 16.0664 28.5859 16.3359 28.3828 16.6172C28.1797 16.8984 27.9531 17.1562 27.7031 17.3906C27.4531 17.625 27.1836 17.8203 26.8945 17.9766C26.6055 18.125 26.3008 18.1992 25.9805 18.1992C25.5273 18.1992 25.1445 18.0547 24.832 17.7656C24.5273 17.4766 24.3047 17.1133 24.1641 16.6758C23.8984 17.1211 23.582 17.4766 23.2148 17.7422C22.8477 18 22.4805 18.1289 22.1133 18.1289C21.8242 18.1289 21.5625 18.0781 21.3281 17.9766C21.0938 17.8672 20.8945 17.7188 20.7305 17.5312C20.5664 17.3359 20.4375 17.1094 20.3438 16.8516C20.2578 16.5938 20.2148 16.3125 20.2148 16.0078C20.2148 15.3984 20.3164 14.8633 20.5195 14.4023C20.7305 13.9336 20.9961 13.543 21.3164 13.2305C21.6367 12.918 21.9883 12.6836 22.3711 12.5273C22.7617 12.3711 23.1367 12.293 23.4961 12.293C23.7383 12.293 23.9609 12.3281 24.1641 12.3984C24.3672 12.4609 24.5391 12.5312 24.6797 12.6094C24.8281 12.6875 24.9414 12.7617 25.0195 12.832C25.0977 12.8945 25.1406 12.9297 25.1484 12.9375C25.2344 13.0391 25.2773 13.1445 25.2773 13.2539C25.2773 13.3711 25.2344 13.4766 25.1484 13.5703C25.0625 13.6562 24.9609 13.6992 24.8438 13.6992C24.7188 13.6992 24.6133 13.6562 24.5273 13.5703C24.5117 13.5547 24.4766 13.5273 24.4219 13.4883C24.3672 13.4414 24.293 13.3945 24.1992 13.3477C24.1055 13.3008 23.9922 13.2617 23.8594 13.2305C23.7344 13.1914 23.5898 13.1719 23.4258 13.1719C23.1836 13.1719 22.9258 13.2266 22.6523 13.3359C22.3789 13.4453 22.1289 13.6172 21.9023 13.8516C21.6758 14.0781 21.4844 14.3672 21.3281 14.7188C21.1797 15.0625 21.1055 15.4727 21.1055 15.9492C21.1055 16.0977 21.1211 16.25 21.1523 16.4062C21.1836 16.5547 21.2383 16.6914 21.3164 16.8164C21.3945 16.9414 21.5 17.043 21.6328 17.1211C21.7656 17.1992 21.9297 17.2383 22.125 17.2383C22.2656 17.2383 22.4258 17.1914 22.6055 17.0977C22.793 17.0039 22.9688 16.8594 23.1328 16.6641C23.3047 16.4688 23.457 16.2227 23.5898 15.9258C23.7305 15.6289 23.8281 15.2773 23.8828 14.8711C23.8984 14.7617 23.9492 14.6719 24.0352 14.6016C24.1211 14.5234 24.2227 14.4844 24.3398 14.4844C24.4492 14.4844 24.543 14.5273 24.6211 14.6133C24.707 14.6992 24.7539 14.7969 24.7617 14.9062C24.7695 15.0547 24.7852 15.2656 24.8086 15.5391C24.832 15.8047 24.8828 16.0703 24.9609 16.3359C25.0469 16.6016 25.1719 16.832 25.3359 17.0273C25.5 17.2227 25.7266 17.3203 26.0156 17.3203C26.2031 17.3203 26.3867 17.2695 26.5664 17.168C26.7539 17.0664 26.9336 16.9336 27.1055 16.7695C27.2852 16.5977 27.4531 16.4062 27.6094 16.1953C27.7734 15.9766 27.9219 15.7578 28.0547 15.5391C28.1875 15.3203 28.3047 15.1094 28.4062 14.9062C28.5078 14.7031 28.5938 14.5273 28.6641 14.3789C28.7031 14.293 28.7578 14.2266 28.8281 14.1797C28.9062 14.1328 28.9883 14.1094 29.0742 14.1094C29.207 14.1094 29.3125 14.1602 29.3906 14.2617C29.4766 14.3555 29.5195 14.457 29.5195 14.5664C29.5195 14.6211 29.5078 14.6758 29.4844 14.7305ZM35.3438 14.7539C35.2578 14.9336 35.1484 15.1484 35.0156 15.3984C34.8906 15.6406 34.7461 15.8945 34.582 16.1602C34.418 16.4258 34.2344 16.6914 34.0312 16.957C33.8281 17.2148 33.6055 17.4492 33.3633 17.6602C33.1289 17.8633 32.875 18.0273 32.6016 18.1523C32.3359 18.2852 32.0508 18.3516 31.7461 18.3516C31.2773 18.3516 30.875 18.207 30.5391 17.918C30.2031 17.6289 29.918 17.25 29.6836 16.7812C29.4492 16.3125 29.2578 15.7812 29.1094 15.1875C28.9688 14.5859 28.8594 13.9766 28.7812 13.3594C28.7031 12.7344 28.6484 12.1289 28.6172 11.543C28.5938 10.957 28.582 10.4375 28.582 9.98438C28.582 9.32812 28.6016 8.64844 28.6406 7.94531C28.6875 7.24219 28.7578 6.55469 28.8516 5.88281C28.9453 5.21094 29.0625 4.57422 29.2031 3.97266C29.3516 3.37109 29.5234 2.84375 29.7188 2.39062C29.9219 1.9375 30.1523 1.57813 30.4102 1.3125C30.668 1.04687 30.9609 0.914062 31.2891 0.914062C31.5469 0.914062 31.7773 0.976562 31.9805 1.10156C32.1914 1.21875 32.3672 1.41406 32.5078 1.6875C32.6484 1.96094 32.7578 2.31641 32.8359 2.75391C32.9141 3.19141 32.9531 3.72656 32.9531 4.35938C32.9531 5.14062 32.8711 5.94922 32.707 6.78516C32.543 7.61328 32.3203 8.44922 32.0391 9.29297C31.7578 10.1367 31.4258 10.9805 31.043 11.8242C30.6602 12.6602 30.25 13.4766 29.8125 14.2734C30.0078 15.2656 30.2695 16.0469 30.5977 16.6172C30.9258 17.1797 31.3203 17.4609 31.7812 17.4609C32.0938 17.4609 32.3945 17.3398 32.6836 17.0977C32.9727 16.8477 33.2383 16.5547 33.4805 16.2188C33.7227 15.8828 33.9336 15.543 34.1133 15.1992C34.3008 14.8477 34.4453 14.5664 34.5469 14.3555C34.5859 14.2773 34.6406 14.2188 34.7109 14.1797C34.7812 14.1328 34.8594 14.1094 34.9453 14.1094C35.0781 14.1094 35.1836 14.1562 35.2617 14.25C35.3477 14.3438 35.3906 14.4492 35.3906 14.5664C35.3906 14.6133 35.375 14.6758 35.3438 14.7539ZM29.4727 10.043C29.4727 10.543 29.4844 11.0234 29.5078 11.4844C29.5312 11.9453 29.5625 12.3867 29.6016 12.8086C29.9297 12.1758 30.2422 11.5039 30.5391 10.793C30.8359 10.0742 31.0977 9.35156 31.3242 8.625C31.5508 7.89062 31.7305 7.16406 31.8633 6.44531C32.0039 5.71875 32.0742 5.02734 32.0742 4.37109C32.0742 3.44922 32 2.78906 31.8516 2.39062C31.7031 1.99219 31.5039 1.79297 31.2539 1.79297C31.0898 1.79297 30.9297 1.90625 30.7734 2.13281C30.625 2.35937 30.4844 2.66797 30.3516 3.05859C30.2188 3.44922 30.0977 3.91016 29.9883 4.44141C29.8789 4.97266 29.7852 5.54297 29.707 6.15234C29.6367 6.76172 29.5781 7.39844 29.5312 8.0625C29.4922 8.72656 29.4727 9.38672 29.4727 10.043ZM35.9648 16.7109C36.1289 16.9375 36.3398 17.1211 36.5977 17.2617C36.8555 17.3945 37.1719 17.4609 37.5469 17.4609C37.9297 17.4609 38.2773 17.3711 38.5898 17.1914C38.9023 17.0039 39.1875 16.7617 39.4453 16.4648C39.7031 16.168 39.9336 15.8359 40.1367 15.4688C40.3398 15.1016 40.5234 14.7344 40.6875 14.3672C40.7266 14.2812 40.7812 14.2188 40.8516 14.1797C40.9219 14.1328 41 14.1094 41.0859 14.1094C41.2188 14.1094 41.3242 14.1562 41.4023 14.25C41.4883 14.3438 41.5312 14.4453 41.5312 14.5547C41.5312 14.5938 41.5273 14.6289 41.5195 14.6602C41.5117 14.6836 41.5 14.7109 41.4844 14.7422C40.9453 15.9297 40.3555 16.8242 39.7148 17.4258C39.082 18.0273 38.3633 18.3359 37.5586 18.3516C37.043 18.3516 36.5977 18.25 36.2227 18.0469C35.8477 17.8516 35.5391 17.5977 35.2969 17.2852C35.0547 16.9648 34.875 16.6055 34.7578 16.207C34.6406 15.8086 34.582 15.4102 34.582 15.0117C34.582 14.6133 34.6289 14.2461 34.7227 13.9102C34.8242 13.5742 34.9648 13.2812 35.1445 13.0312C35.332 12.7812 35.5508 12.5859 35.8008 12.4453C36.0586 12.3047 36.3398 12.2344 36.6445 12.2344C36.8242 12.2344 37 12.2734 37.1719 12.3516C37.3516 12.4219 37.5117 12.5273 37.6523 12.668C37.793 12.8008 37.9062 12.9648 37.9922 13.1602C38.0781 13.3555 38.1211 13.5781 38.1211 13.8281C38.1211 14.1484 38.0664 14.4492 37.957 14.7305C37.8477 15.0117 37.6953 15.2734 37.5 15.5156C37.3125 15.7578 37.0859 15.9805 36.8203 16.1836C36.5547 16.3867 36.2695 16.5625 35.9648 16.7109ZM35.6133 15.9492C35.8555 15.8477 36.0742 15.7188 36.2695 15.5625C36.4727 15.4062 36.6445 15.2344 36.7852 15.0469C36.9258 14.8594 37.0352 14.6641 37.1133 14.4609C37.1914 14.25 37.2305 14.0391 37.2305 13.8281C37.2305 13.5938 37.1719 13.418 37.0547 13.3008C36.9375 13.1758 36.8008 13.1133 36.6445 13.1133C36.4336 13.1133 36.2539 13.1719 36.1055 13.2891C35.957 13.4062 35.8359 13.5586 35.7422 13.7461C35.6484 13.9336 35.5781 14.1445 35.5312 14.3789C35.4922 14.6055 35.4727 14.832 35.4727 15.0586C35.4727 15.1992 35.4844 15.3477 35.5078 15.5039C35.5391 15.6602 35.5742 15.8086 35.6133 15.9492ZM41.9297 13.1836C41.8984 13.3945 41.8594 13.5938 41.8125 13.7812C41.7656 13.9609 41.7188 14.1211 41.6719 14.2617C41.6328 14.3945 41.5977 14.5039 41.5664 14.5898C41.5352 14.6758 41.5156 14.7227 41.5078 14.7305C41.4297 14.9102 41.293 15 41.0977 15C40.9883 15 40.8867 14.9609 40.793 14.8828C40.6992 14.7969 40.6523 14.6914 40.6523 14.5664C40.6523 14.5195 40.6602 14.4844 40.6758 14.4609C40.6914 14.4375 40.7148 14.3906 40.7461 14.3203C40.7773 14.25 40.8164 14.1328 40.8633 13.9688C40.9102 13.8047 40.9688 13.5508 41.0391 13.207C40.9062 13.207 40.7695 13.2031 40.6289 13.1953C40.4883 13.1875 40.3594 13.1602 40.2422 13.1133C40.1172 13.0664 40.0156 12.9922 39.9375 12.8906C39.8594 12.7891 39.8203 12.6484 39.8203 12.4688C39.8203 12.3359 39.8594 12.1562 39.9375 11.9297C40.0078 11.7031 40.1055 11.4805 40.2305 11.2617C40.3555 11.043 40.4961 10.8555 40.6523 10.6992C40.8086 10.5352 40.9648 10.4531 41.1211 10.4531C41.3008 10.4531 41.4453 10.5195 41.5547 10.6523C41.6719 10.7852 41.7617 10.9492 41.8242 11.1445C41.8867 11.332 41.9297 11.5312 41.9531 11.7422C41.9844 11.9531 42 12.1367 42 12.293C42.1328 12.293 42.2617 12.293 42.3867 12.293C42.5195 12.2852 42.6445 12.2812 42.7617 12.2812C43.207 12.2812 43.5469 12.3789 43.7812 12.5742C44.0156 12.7695 44.1328 13.0898 44.1328 13.5352C44.1328 13.7148 44.1211 13.9023 44.0977 14.0977C44.0742 14.293 44.0469 14.4961 44.0156 14.707C43.9844 14.9102 43.957 15.1133 43.9336 15.3164C43.9102 15.5195 43.8984 15.7188 43.8984 15.9141C43.8984 16.1953 43.9375 16.4297 44.0156 16.6172C44.0938 16.7969 44.1914 16.9414 44.3086 17.0508C44.4258 17.1602 44.5508 17.2383 44.6836 17.2852C44.8164 17.3242 44.9375 17.3438 45.0469 17.3438C45.3828 17.3438 45.6992 17.2344 45.9961 17.0156C46.293 16.7969 46.5664 16.5352 46.8164 16.2305C47.0664 15.918 47.2891 15.5898 47.4844 15.2461C47.6875 14.9023 47.8555 14.6016 47.9883 14.3438C48.0273 14.2734 48.082 14.2188 48.1523 14.1797C48.2227 14.1406 48.2969 14.1211 48.375 14.1211C48.5156 14.1211 48.625 14.168 48.7031 14.2617C48.7812 14.3477 48.8203 14.4453 48.8203 14.5547C48.8203 14.6328 48.8047 14.7031 48.7734 14.7656C48.5938 15.0859 48.3828 15.4492 48.1406 15.8555C47.9062 16.2539 47.6367 16.6289 47.332 16.9805C47.0273 17.332 46.6836 17.6289 46.3008 17.8711C45.9258 18.1133 45.5117 18.2344 45.0586 18.2344C44.7773 18.2344 44.5117 18.1797 44.2617 18.0703C44.0117 17.9688 43.793 17.8203 43.6055 17.625C43.4258 17.4219 43.2812 17.1758 43.1719 16.8867C43.0625 16.5898 43.0078 16.2578 43.0078 15.8906C43.0078 15.5 43.0469 15.1133 43.125 14.7305C43.2031 14.3398 43.2422 13.9688 43.2422 13.6172C43.2422 13.4688 43.207 13.3594 43.1367 13.2891C43.0742 13.2109 42.9297 13.1719 42.7031 13.1719C42.5938 13.1719 42.4727 13.1719 42.3398 13.1719C42.2148 13.1719 42.0781 13.1758 41.9297 13.1836ZM41.1445 12.3164C41.1445 12.2617 41.1406 12.1914 41.1328 12.1055C41.1328 12.0117 41.125 11.9219 41.1094 11.8359C41.1016 11.75 41.0859 11.6758 41.0625 11.6133C41.0469 11.5508 41.0273 11.5195 41.0039 11.5195C40.9805 11.5195 40.9492 11.5508 40.9102 11.6133C40.8789 11.668 40.8438 11.7383 40.8047 11.8242C40.7656 11.9023 40.7305 11.9883 40.6992 12.082C40.668 12.1758 40.6445 12.2539 40.6289 12.3164H41.1445ZM49.8984 8.80078C49.8984 9.09766 49.793 9.35156 49.582 9.5625C49.3789 9.76562 49.1289 9.86719 48.832 9.86719C48.5352 9.86719 48.2812 9.76562 48.0703 9.5625C47.8672 9.35156 47.7656 9.09766 47.7656 8.80078C47.7656 8.65234 47.793 8.51562 47.8477 8.39062C47.9023 8.25781 47.9766 8.14453 48.0703 8.05078C48.1719 7.94922 48.2852 7.87109 48.4102 7.81641C48.543 7.76172 48.6836 7.73438 48.832 7.73438C48.9805 7.73438 49.1172 7.76172 49.2422 7.81641C49.375 7.87109 49.4883 7.94922 49.582 8.05078C49.6836 8.14453 49.7617 8.25781 49.8164 8.39062C49.8711 8.51562 49.8984 8.65234 49.8984 8.80078ZM48 15.668C48 14.543 48.0703 13.4219 48.2109 12.3047C48.2266 12.1953 48.2734 12.1016 48.3516 12.0234C48.4375 11.9375 48.5469 11.8945 48.6797 11.8945C48.7969 11.8945 48.8945 11.9414 48.9727 12.0352C49.0508 12.1211 49.0898 12.2227 49.0898 12.3398C49.0898 12.3867 49.0781 12.5273 49.0547 12.7617C49.0391 12.9961 49.0156 13.2773 48.9844 13.6055C48.9609 13.9258 48.9375 14.2695 48.9141 14.6367C48.8984 14.9961 48.8906 15.3281 48.8906 15.6328C48.8906 16.0469 48.9297 16.3828 49.0078 16.6406C49.0938 16.8906 49.1992 17.0859 49.3242 17.2266C49.457 17.3672 49.5938 17.4609 49.7344 17.5078C49.8828 17.5547 50.0234 17.5781 50.1562 17.5781C50.375 17.5781 50.6016 17.5 50.8359 17.3438C51.0703 17.1875 51.3086 16.9688 51.5508 16.6875C51.8008 16.4062 52.0508 16.0703 52.3008 15.6797C52.5508 15.2812 52.7969 14.8398 53.0391 14.3555C53.0781 14.2773 53.1328 14.2188 53.2031 14.1797C53.2734 14.1328 53.3516 14.1094 53.4375 14.1094C53.5625 14.1094 53.6641 14.1562 53.7422 14.25C53.8281 14.3438 53.8711 14.4453 53.8711 14.5547C53.8711 14.6328 53.8555 14.6992 53.8242 14.7539C53.7305 14.9336 53.6133 15.1523 53.4727 15.4102C53.332 15.668 53.1719 15.9336 52.9922 16.207C52.8125 16.4805 52.6133 16.7539 52.3945 17.0273C52.1836 17.293 51.957 17.5352 51.7148 17.7539C51.4727 17.9648 51.2188 18.1367 50.9531 18.2695C50.6875 18.4023 50.418 18.4688 50.1445 18.4688C49.793 18.4688 49.4844 18.3945 49.2188 18.2461C48.9531 18.0977 48.7266 17.8984 48.5391 17.6484C48.3594 17.3984 48.2227 17.1055 48.1289 16.7695C48.043 16.4258 48 16.0586 48 15.668ZM49.2422 8.80078C49.2422 8.69141 49.1992 8.59766 49.1133 8.51953C49.0352 8.43359 48.9414 8.39062 48.832 8.39062C48.7227 8.39062 48.6289 8.43359 48.5508 8.51953C48.4727 8.59766 48.4336 8.69141 48.4336 8.80078C48.4336 8.91016 48.4727 9.00391 48.5508 9.08203C48.6289 9.16016 48.7227 9.19922 48.832 9.19922C48.9414 9.19922 49.0352 9.16016 49.1133 9.08203C49.1992 9.00391 49.2422 8.91016 49.2422 8.80078ZM62.0859 14.7305C62.0547 14.793 61.9883 14.9258 61.8867 15.1289C61.793 15.3242 61.668 15.5508 61.5117 15.8086C61.3633 16.0664 61.1875 16.3359 60.9844 16.6172C60.7812 16.8984 60.5547 17.1562 60.3047 17.3906C60.0547 17.625 59.7852 17.8203 59.4961 17.9766C59.207 18.125 58.9023 18.1992 58.582 18.1992C58.1289 18.1992 57.7461 18.0547 57.4336 17.7656C57.1289 17.4766 56.9062 17.1133 56.7656 16.6758C56.5 17.1211 56.1836 17.4766 55.8164 17.7422C55.4492 18 55.082 18.1289 54.7148 18.1289C54.4258 18.1289 54.1641 18.0781 53.9297 17.9766C53.6953 17.8672 53.4961 17.7188 53.332 17.5312C53.168 17.3359 53.0391 17.1094 52.9453 16.8516C52.8594 16.5938 52.8164 16.3125 52.8164 16.0078C52.8164 15.3984 52.918 14.8633 53.1211 14.4023C53.332 13.9336 53.5977 13.543 53.918 13.2305C54.2383 12.918 54.5898 12.6836 54.9727 12.5273C55.3633 12.3711 55.7383 12.293 56.0977 12.293C56.3398 12.293 56.5625 12.3281 56.7656 12.3984C56.9688 12.4609 57.1406 12.5312 57.2812 12.6094C57.4297 12.6875 57.543 12.7617 57.6211 12.832C57.6992 12.8945 57.7422 12.9297 57.75 12.9375C57.8359 13.0391 57.8789 13.1445 57.8789 13.2539C57.8789 13.3711 57.8359 13.4766 57.75 13.5703C57.6641 13.6562 57.5625 13.6992 57.4453 13.6992C57.3203 13.6992 57.2148 13.6562 57.1289 13.5703C57.1133 13.5547 57.0781 13.5273 57.0234 13.4883C56.9688 13.4414 56.8945 13.3945 56.8008 13.3477C56.707 13.3008 56.5938 13.2617 56.4609 13.2305C56.3359 13.1914 56.1914 13.1719 56.0273 13.1719C55.7852 13.1719 55.5273 13.2266 55.2539 13.3359C54.9805 13.4453 54.7305 13.6172 54.5039 13.8516C54.2773 14.0781 54.0859 14.3672 53.9297 14.7188C53.7812 15.0625 53.707 15.4727 53.707 15.9492C53.707 16.0977 53.7227 16.25 53.7539 16.4062C53.7852 16.5547 53.8398 16.6914 53.918 16.8164C53.9961 16.9414 54.1016 17.043 54.2344 17.1211C54.3672 17.1992 54.5312 17.2383 54.7266 17.2383C54.8672 17.2383 55.0273 17.1914 55.207 17.0977C55.3945 17.0039 55.5703 16.8594 55.7344 16.6641C55.9062 16.4688 56.0586 16.2227 56.1914 15.9258C56.332 15.6289 56.4297 15.2773 56.4844 14.8711C56.5 14.7617 56.5508 14.6719 56.6367 14.6016C56.7227 14.5234 56.8242 14.4844 56.9414 14.4844C57.0508 14.4844 57.1445 14.5273 57.2227 14.6133C57.3086 14.6992 57.3555 14.7969 57.3633 14.9062C57.3711 15.0547 57.3867 15.2656 57.4102 15.5391C57.4336 15.8047 57.4844 16.0703 57.5625 16.3359C57.6484 16.6016 57.7734 16.832 57.9375 17.0273C58.1016 17.2227 58.3281 17.3203 58.6172 17.3203C58.8047 17.3203 58.9883 17.2695 59.168 17.168C59.3555 17.0664 59.5352 16.9336 59.707 16.7695C59.8867 16.5977 60.0547 16.4062 60.2109 16.1953C60.375 15.9766 60.5234 15.7578 60.6562 15.5391C60.7891 15.3203 60.9062 15.1094 61.0078 14.9062C61.1094 14.7031 61.1953 14.5273 61.2656 14.3789C61.3047 14.293 61.3594 14.2266 61.4297 14.1797C61.5078 14.1328 61.5898 14.1094 61.6758 14.1094C61.8086 14.1094 61.9141 14.1602 61.9922 14.2617C62.0781 14.3555 62.1211 14.457 62.1211 14.5664C62.1211 14.6211 62.1094 14.6758 62.0859 14.7305Z" fill="#831843"/>
</svg>
