<svg width="60" height="19" viewBox="0 0 60 19" fill="none" xmlns="http://www.w3.org/2000/svg">
<path d="M18.043 0.996094C18.043 1.26953 17.9688 1.53906 17.8203 1.80469C17.6719 2.07031 17.4805 2.31641 17.2461 2.54297C17.0117 2.76953 16.7461 2.97656 16.4492 3.16406C16.1602 3.34375 15.8711 3.49219 15.582 3.60938C15.5039 3.9375 15.4414 4.30469 15.3945 4.71094C15.3477 5.10938 15.3164 5.55469 15.3008 6.04688C15.2852 6.65625 15.2617 7.26172 15.2305 7.86328C15.1992 8.46484 15.1523 9.0625 15.0898 9.65625C15.7227 9.63281 16.4141 9.60938 17.1641 9.58594C17.9141 9.55469 18.6992 9.52734 19.5195 9.50391C20.3398 9.48047 21.1797 9.46094 22.0391 9.44531C22.9062 9.42969 23.7695 9.42188 24.6289 9.42188C24.6914 8.17188 24.8281 7.0625 25.0391 6.09375C25.25 5.125 25.5234 4.30859 25.8594 3.64453C26.2031 2.98047 26.6055 2.47656 27.0664 2.13281C27.5273 1.78906 28.0391 1.61719 28.6016 1.61719C28.6953 1.61719 28.8086 1.625 28.9414 1.64062C29.082 1.65625 29.2188 1.6875 29.3516 1.73438C29.4844 1.77344 29.5977 1.83594 29.6914 1.92188C29.7852 2 29.832 2.10938 29.832 2.25C29.832 2.28906 29.8281 2.32813 29.8203 2.36719C29.8125 2.39844 29.7969 2.43359 29.7734 2.47266C29.6875 2.61328 29.5703 2.68359 29.4219 2.68359C29.3594 2.68359 29.3086 2.67578 29.2695 2.66016C29.2383 2.63672 29.1953 2.61719 29.1406 2.60156C29.0938 2.57812 29.0312 2.55859 28.9531 2.54297C28.875 2.51953 28.7656 2.50781 28.625 2.50781C28.5078 2.50781 28.3555 2.53125 28.168 2.57812C27.9883 2.61719 27.793 2.71484 27.582 2.87109C27.3711 3.02734 27.1523 3.25781 26.9258 3.5625C26.707 3.85937 26.5 4.26562 26.3047 4.78125C26.1172 5.28906 25.9492 5.92188 25.8008 6.67969C25.6602 7.4375 25.5664 8.35156 25.5195 9.42188C26.0352 9.42969 26.543 9.4375 27.043 9.44531C27.543 9.45312 28.0352 9.46484 28.5195 9.48047C28.6523 9.48047 28.7539 9.52734 28.8242 9.62109C28.9023 9.70703 28.9414 9.8125 28.9414 9.9375C28.9414 10.0625 28.8984 10.1641 28.8125 10.2422C28.7266 10.3203 28.625 10.3594 28.5078 10.3594C28.3516 10.3594 28.1875 10.3594 28.0156 10.3594C27.8516 10.3516 27.6523 10.3438 27.418 10.3359C27.1914 10.3281 26.9219 10.3203 26.6094 10.3125C26.2969 10.3047 25.9258 10.3008 25.4961 10.3008C25.4883 10.4258 25.4844 10.5508 25.4844 10.6758C25.4844 10.8008 25.4844 10.9297 25.4844 11.0625C25.4844 11.9219 25.5156 12.6914 25.5781 13.3711C25.6484 14.0508 25.7305 14.6523 25.8242 15.1758C25.9258 15.6992 26.0352 16.1484 26.1523 16.5234C26.2695 16.8906 26.3789 17.1953 26.4805 17.4375C26.582 17.6719 26.6641 17.8477 26.7266 17.9648C26.7969 18.0742 26.832 18.1289 26.832 18.1289C26.8867 18.207 26.9141 18.293 26.9141 18.3867C26.9141 18.5039 26.8711 18.6055 26.7852 18.6914C26.6992 18.7852 26.5938 18.832 26.4688 18.832C26.3203 18.832 26.2031 18.7695 26.1172 18.6445C26.1016 18.6211 26.0117 18.4688 25.8477 18.1875C25.6914 17.9062 25.5195 17.4648 25.332 16.8633C25.1445 16.2539 24.9727 15.4766 24.8164 14.5312C24.668 13.5781 24.5938 12.4219 24.5938 11.0625V10.3008C23.7266 10.3008 22.8555 10.3086 21.9805 10.3242C21.1055 10.3398 20.2539 10.3594 19.4258 10.3828C18.6055 10.4062 17.8164 10.4336 17.0586 10.4648C16.3086 10.4883 15.6172 10.5117 14.9844 10.5352C14.8359 11.6211 14.6055 12.6445 14.293 13.6055C13.9883 14.5664 13.5469 15.4102 12.9688 16.1367C12.3984 16.8555 11.668 17.4258 10.7773 17.8477C9.88672 18.2617 8.78906 18.4688 7.48438 18.4688C6.79688 18.4688 6.12891 18.3945 5.48047 18.2461C4.83984 18.1055 4.24219 17.9062 3.6875 17.6484C3.13281 17.3828 2.63281 17.0664 2.1875 16.6992C1.74219 16.332 1.37891 15.9297 1.09766 15.4922C1.05078 15.4219 1.02734 15.3438 1.02734 15.2578C1.02734 15.1406 1.06641 15.0391 1.14453 14.9531C1.23047 14.8594 1.33984 14.8125 1.47266 14.8125C1.54297 14.8125 1.61328 14.832 1.68359 14.8711C1.75391 14.9023 1.80859 14.9492 1.84766 15.0117C2.08984 15.3945 2.40234 15.7422 2.78516 16.0547C3.17578 16.3672 3.61719 16.6367 4.10938 16.8633C4.60156 17.0898 5.13281 17.2656 5.70312 17.3906C6.28125 17.5156 6.87891 17.5781 7.49609 17.5781C8.64453 17.5781 9.60938 17.3984 10.3906 17.0391C11.1719 16.6719 11.8086 16.1719 12.3008 15.5391C12.8008 14.9062 13.1836 14.168 13.4492 13.3242C13.7227 12.4727 13.9258 11.5586 14.0586 10.582C13.3086 10.6211 12.7148 10.6523 12.2773 10.6758C11.8398 10.6992 11.6133 10.7109 11.5977 10.7109C11.4805 10.7109 11.3711 10.6758 11.2695 10.6055C11.1758 10.5273 11.1289 10.4219 11.1289 10.2891C11.1289 10.1641 11.1641 10.0586 11.2344 9.97266C11.3125 9.88672 11.4141 9.83594 11.5391 9.82031C11.5547 9.82031 11.7969 9.80859 12.2656 9.78516C12.7344 9.76172 13.3672 9.73047 14.1641 9.69141C14.2266 9.08984 14.2734 8.48438 14.3047 7.875C14.3438 7.25781 14.3789 6.63672 14.4102 6.01172C14.4258 5.61328 14.4531 5.23047 14.4922 4.86328C14.5391 4.48828 14.5938 4.14844 14.6562 3.84375C14.4766 3.88281 14.2734 3.91797 14.0469 3.94922C13.8281 3.97266 13.6094 3.98438 13.3906 3.98438C12.7031 3.98438 12.0273 3.92969 11.3633 3.82031C10.6992 3.71094 10.0312 3.59375 9.35938 3.46875C8.69531 3.33594 8.02344 3.21484 7.34375 3.10547C6.67188 2.99609 5.98438 2.94141 5.28125 2.94141C4.70312 2.94141 4.16016 3.00391 3.65234 3.12891C3.15234 3.24609 2.71484 3.42969 2.33984 3.67969C1.96484 3.92969 1.66797 4.24609 1.44922 4.62891C1.23828 5.00391 1.13281 5.44922 1.13281 5.96484C1.13281 6.29297 1.19141 6.58203 1.30859 6.83203C1.42578 7.08203 1.55859 7.29297 1.70703 7.46484C1.85547 7.63672 1.99609 7.77344 2.12891 7.875C2.26953 7.96875 2.35938 8.02734 2.39844 8.05078C2.53906 8.15234 2.60938 8.28125 2.60938 8.4375C2.60938 8.5625 2.57031 8.66797 2.49219 8.75391C2.41406 8.83203 2.31641 8.87109 2.19922 8.87109C2.14453 8.87109 2.08984 8.86328 2.03516 8.84766C1.98828 8.82422 1.94531 8.80078 1.90625 8.77734C1.72656 8.66797 1.53906 8.52734 1.34375 8.35547C1.14844 8.18359 0.96875 7.98047 0.804688 7.74609C0.640625 7.50391 0.503906 7.23438 0.394531 6.9375C0.292969 6.64062 0.242188 6.31641 0.242188 5.96484C0.242188 5.27734 0.390625 4.6875 0.6875 4.19531C0.992188 3.69531 1.38672 3.28906 1.87109 2.97656C2.35547 2.65625 2.89453 2.42188 3.48828 2.27344C4.08984 2.125 4.69141 2.05078 5.29297 2.05078C5.97266 2.05078 6.64453 2.10938 7.30859 2.22656C7.98047 2.33594 8.65234 2.45703 9.32422 2.58984C9.99609 2.72266 10.668 2.84766 11.3398 2.96484C12.0195 3.07422 12.7109 3.12891 13.4141 3.12891C13.6953 3.12891 13.9492 3.12109 14.1758 3.10547C14.4023 3.08203 14.6172 3.03906 14.8203 2.97656C14.9609 2.48438 15.1211 2.0625 15.3008 1.71094C15.4883 1.35156 15.6836 1.05859 15.8867 0.832031C16.0977 0.597656 16.3086 0.425781 16.5195 0.316406C16.7305 0.207031 16.9336 0.152344 17.1289 0.152344C17.3867 0.152344 17.6016 0.230469 17.7734 0.386719C17.9531 0.542969 18.043 0.746094 18.043 0.996094ZM17.0703 0.984375C17.0078 0.984375 16.9219 1.01953 16.8125 1.08984C16.7109 1.15234 16.5977 1.25391 16.4727 1.39453C16.3477 1.52734 16.2227 1.69922 16.0977 1.91016C15.9727 2.12109 15.8633 2.37109 15.7695 2.66016C16.0273 2.54297 16.2539 2.39062 16.4492 2.20312C16.6445 2.01562 16.8008 1.83203 16.918 1.65234C17.0352 1.46484 17.1094 1.30859 17.1406 1.18359C17.1719 1.05078 17.1484 0.984375 17.0703 0.984375ZM34.5195 16.7109C34.3242 16.7109 34.1523 16.6953 34.0039 16.6641C33.8867 16.8984 33.7461 17.1172 33.582 17.3203C33.418 17.5156 33.2266 17.6875 33.0078 17.8359C32.7969 17.9844 32.5586 18.1016 32.293 18.1875C32.0273 18.2734 31.7383 18.3164 31.4258 18.3164C31.0586 18.3164 30.7227 18.25 30.418 18.1172C30.1133 17.9922 29.8477 17.8164 29.6211 17.5898C29.3945 17.3555 29.2188 17.0781 29.0938 16.7578C28.9688 16.4297 28.9062 16.0703 28.9062 15.6797C28.9062 15.1797 28.9961 14.7461 29.1758 14.3789C29.3555 14.0039 29.5625 13.6953 29.7969 13.4531C30.0312 13.2031 30.2656 13.0195 30.5 12.9023C30.7344 12.7773 30.9102 12.7148 31.0273 12.7148C31.1602 12.7148 31.2578 12.75 31.3203 12.8203C31.3906 12.8906 31.4258 12.9844 31.4258 13.1016C31.4258 13.2344 31.3828 13.3359 31.2969 13.4062C31.2188 13.4688 31.1172 13.5312 30.9922 13.5938C30.8672 13.6562 30.7344 13.7461 30.5938 13.8633C30.4531 13.9727 30.3203 14.1133 30.1953 14.2852C30.0781 14.457 29.9805 14.6602 29.9023 14.8945C29.8242 15.1289 29.7852 15.3906 29.7852 15.6797C29.7852 15.9375 29.8242 16.1797 29.9023 16.4062C29.9805 16.625 30.0938 16.8164 30.2422 16.9805C30.3906 17.1367 30.5664 17.2617 30.7695 17.3555C30.9727 17.4414 31.1992 17.4844 31.4492 17.4844C31.8945 17.4844 32.2617 17.3828 32.5508 17.1797C32.8477 16.9688 33.0742 16.7031 33.2305 16.3828C32.7695 16.1406 32.3906 15.7969 32.0938 15.3516C31.7969 14.9062 31.6484 14.4062 31.6484 13.8516C31.6484 13.4062 31.7539 13.043 31.9648 12.7617C32.1836 12.4805 32.4688 12.3398 32.8203 12.3398C33.0312 12.3398 33.2305 12.3906 33.418 12.4922C33.6055 12.5938 33.7695 12.7539 33.9102 12.9727C34.0586 13.1914 34.1758 13.4727 34.2617 13.8164C34.3477 14.1602 34.3906 14.5703 34.3906 15.0469C34.3906 15.2969 34.3594 15.5586 34.2969 15.832C34.3438 15.8398 34.3906 15.8438 34.4375 15.8438C34.4844 15.8438 34.5352 15.8438 34.5898 15.8438C34.8555 15.8438 35.0938 15.8125 35.3047 15.75C35.5156 15.6875 35.707 15.5938 35.8789 15.4688C36.0508 15.3438 36.2031 15.1836 36.3359 14.9883C36.4766 14.793 36.6094 14.5664 36.7344 14.3086C36.7578 14.2617 36.8086 14.2188 36.8867 14.1797C36.9648 14.1328 37.043 14.1094 37.1211 14.1094C37.2227 14.1094 37.3164 14.1523 37.4023 14.2383C37.4961 14.3164 37.543 14.4219 37.543 14.5547C37.543 14.6172 37.5273 14.6875 37.4961 14.7656C37.4648 14.8359 37.4336 14.9023 37.4023 14.9648C37.2695 15.1992 37.1133 15.4258 36.9336 15.6445C36.7617 15.8555 36.5547 16.043 36.3125 16.207C36.0781 16.3633 35.8125 16.4883 35.5156 16.582C35.2188 16.6758 34.8867 16.7188 34.5195 16.7109ZM32.5156 13.7578C32.5156 13.9062 32.5352 14.0625 32.5742 14.2266C32.6133 14.3906 32.6719 14.5547 32.75 14.7188C32.8359 14.875 32.9375 15.0273 33.0547 15.1758C33.1797 15.3164 33.3242 15.4375 33.4883 15.5391C33.5117 15.375 33.5234 15.2148 33.5234 15.0586C33.5234 14.8477 33.5078 14.6328 33.4766 14.4141C33.4453 14.1953 33.3984 13.9961 33.3359 13.8164C33.2812 13.6289 33.2109 13.4805 33.125 13.3711C33.0391 13.2539 32.9375 13.1953 32.8203 13.1953C32.7734 13.1953 32.7109 13.2305 32.6328 13.3008C32.5547 13.3711 32.5156 13.5234 32.5156 13.7578ZM39.418 16.957C39.5352 16.7227 39.6836 16.4336 39.8633 16.0898C40.0508 15.7383 40.2422 15.3867 40.4375 15.0352C40.6406 14.6836 40.8359 14.3516 41.0234 14.0391C41.2188 13.7266 41.3828 13.4883 41.5156 13.3242C41.7422 13.0508 41.9766 12.8555 42.2188 12.7383C42.4609 12.6211 42.6836 12.5625 42.8867 12.5625C43.0898 12.5625 43.2617 12.6055 43.4023 12.6914C43.5508 12.7773 43.6719 12.8945 43.7656 13.043C43.8594 13.1836 43.9297 13.3516 43.9766 13.5469C44.0234 13.7344 44.0469 13.9375 44.0469 14.1562C44.0469 14.2812 44.0391 14.4453 44.0234 14.6484C44.0156 14.8516 44.0039 15.0703 43.9883 15.3047C43.9805 15.5391 43.9688 15.7812 43.9531 16.0312C43.9453 16.2812 43.9375 16.5156 43.9297 16.7344C44.0469 16.5 44.1797 16.2422 44.3281 15.9609C44.4766 15.6719 44.625 15.3867 44.7734 15.1055C44.9297 14.8242 45.0781 14.5625 45.2188 14.3203C45.3594 14.0703 45.4883 13.8672 45.6055 13.7109C45.9414 13.25 46.2539 12.9414 46.543 12.7852C46.8398 12.6289 47.1016 12.5508 47.3281 12.5508C47.5938 12.5508 47.8125 12.6016 47.9844 12.7031C48.1562 12.7969 48.2891 12.9219 48.3828 13.0781C48.4844 13.2266 48.5547 13.3945 48.5938 13.582C48.6328 13.7695 48.6523 13.9492 48.6523 14.1211C48.6523 14.3867 48.6328 14.6641 48.5938 14.9531C48.5547 15.2422 48.5352 15.5859 48.5352 15.9844C48.5352 16.1484 48.543 16.3125 48.5586 16.4766C48.5742 16.6406 48.6055 16.7852 48.6523 16.9102C48.707 17.0352 48.7891 17.1367 48.8984 17.2148C49.0078 17.293 49.1562 17.332 49.3438 17.332C49.5469 17.332 49.7461 17.2812 49.9414 17.1797C50.1367 17.0703 50.3242 16.9297 50.5039 16.7578C50.6836 16.5859 50.8516 16.3906 51.0078 16.1719C51.1719 15.9531 51.3203 15.7344 51.4531 15.5156C51.5859 15.2969 51.7031 15.0898 51.8047 14.8945C51.9062 14.6914 51.9883 14.5195 52.0508 14.3789C52.0898 14.293 52.1445 14.2266 52.2148 14.1797C52.2852 14.1328 52.3633 14.1094 52.4492 14.1094C52.582 14.1094 52.6875 14.1602 52.7656 14.2617C52.8516 14.3555 52.8945 14.457 52.8945 14.5664C52.8945 14.6211 52.8828 14.6758 52.8594 14.7305C52.8281 14.793 52.7656 14.9258 52.6719 15.1289C52.5781 15.3242 52.4531 15.5508 52.2969 15.8086C52.1406 16.0586 51.957 16.3242 51.7461 16.6055C51.543 16.8867 51.3164 17.1484 51.0664 17.3906C50.8164 17.625 50.5469 17.8203 50.2578 17.9766C49.9688 18.125 49.6641 18.1992 49.3438 18.1992C49 18.1992 48.7188 18.1367 48.5 18.0117C48.2891 17.8945 48.1172 17.7344 47.9844 17.5312C47.8594 17.3281 47.7734 17.0938 47.7266 16.8281C47.6797 16.5625 47.6562 16.2852 47.6562 15.9961C47.6562 15.6133 47.6758 15.2617 47.7148 14.9414C47.7539 14.6133 47.7734 14.3594 47.7734 14.1797C47.7734 13.9844 47.7539 13.8359 47.7148 13.7344C47.6836 13.6328 47.6406 13.5625 47.5859 13.5234C47.5391 13.4766 47.4922 13.4531 47.4453 13.4531C47.3984 13.4453 47.3633 13.4414 47.3398 13.4414C47.1523 13.4414 46.9531 13.5469 46.7422 13.7578C46.5391 13.9609 46.3281 14.2344 46.1094 14.5781C45.8906 14.9219 45.6641 15.3125 45.4297 15.75C45.2031 16.1875 44.9727 16.6328 44.7383 17.0859C44.6055 17.3359 44.4922 17.543 44.3984 17.707C44.3125 17.8711 44.2266 18 44.1406 18.0938C44.0625 18.1875 43.9844 18.2539 43.9062 18.293C43.8281 18.332 43.7422 18.3516 43.6484 18.3516C43.4453 18.3516 43.2891 18.2812 43.1797 18.1406C43.0781 18 43.0273 17.8164 43.0273 17.5898C43.0273 17.4727 43.0312 17.3164 43.0391 17.1211C43.0469 16.9258 43.0547 16.7109 43.0625 16.4766C43.0703 16.2422 43.082 16 43.0977 15.75C43.1133 15.5 43.125 15.2617 43.1328 15.0352C43.1406 14.8008 43.1484 14.5938 43.1562 14.4141C43.1641 14.2344 43.168 14.0977 43.168 14.0039C43.168 13.8008 43.1328 13.6562 43.0625 13.5703C42.9922 13.4766 42.9102 13.4297 42.8164 13.4297C42.7305 13.4297 42.6328 13.4609 42.5234 13.5234C42.4219 13.5859 42.3008 13.707 42.1602 13.8867C42.0508 14.0273 41.9102 14.2344 41.7383 14.5078C41.5742 14.7734 41.3984 15.0703 41.2109 15.3984C41.0234 15.7266 40.8359 16.0625 40.6484 16.4062C40.4688 16.75 40.3125 17.0586 40.1797 17.332C40.0156 17.6602 39.8516 17.8828 39.6875 18C39.5234 18.125 39.3633 18.1875 39.207 18.1875C38.9805 18.1875 38.8125 18.1211 38.7031 17.9883C38.5938 17.8477 38.5391 17.6641 38.5391 17.4375C38.5391 17.4141 38.543 17.2734 38.5508 17.0156C38.5664 16.7578 38.582 16.4453 38.5977 16.0781C38.6133 15.7031 38.6289 15.3047 38.6445 14.8828C38.668 14.4609 38.6875 14.0664 38.7031 13.6992C38.7109 13.5039 38.7031 13.3242 38.6797 13.1602C38.6562 12.9961 38.625 12.8984 38.5859 12.8672C38.5234 12.8828 38.3984 13.0273 38.2109 13.3008C38.0312 13.5742 37.8008 14.0508 37.5195 14.7305C37.4805 14.8164 37.4219 14.8828 37.3438 14.9297C37.2656 14.9766 37.1836 15 37.0977 15C36.9648 15 36.8594 14.957 36.7812 14.8711C36.7031 14.7773 36.6641 14.6719 36.6641 14.5547C36.6641 14.5 36.6758 14.4414 36.6992 14.3789C37.0508 13.543 37.3867 12.9297 37.707 12.5391C38.0273 12.1406 38.3398 11.9414 38.6445 11.9414C38.8242 11.9414 38.9727 11.9844 39.0898 12.0703C39.2148 12.1484 39.3125 12.2539 39.3828 12.3867C39.4531 12.5117 39.5039 12.6562 39.5352 12.8203C39.5664 12.9844 39.582 13.1445 39.582 13.3008C39.582 13.9961 39.5625 14.6328 39.5234 15.2109C39.4922 15.7891 39.457 16.3711 39.418 16.957ZM53.4688 16.7109C53.6328 16.9375 53.8438 17.1211 54.1016 17.2617C54.3594 17.3945 54.6758 17.4609 55.0508 17.4609C55.4336 17.4609 55.7812 17.3711 56.0938 17.1914C56.4062 17.0039 56.6914 16.7617 56.9492 16.4648C57.207 16.168 57.4375 15.8359 57.6406 15.4688C57.8438 15.1016 58.0273 14.7344 58.1914 14.3672C58.2305 14.2812 58.2852 14.2188 58.3555 14.1797C58.4258 14.1328 58.5039 14.1094 58.5898 14.1094C58.7227 14.1094 58.8281 14.1562 58.9062 14.25C58.9922 14.3438 59.0352 14.4453 59.0352 14.5547C59.0352 14.5938 59.0312 14.6289 59.0234 14.6602C59.0156 14.6836 59.0039 14.7109 58.9883 14.7422C58.4492 15.9297 57.8594 16.8242 57.2188 17.4258C56.5859 18.0273 55.8672 18.3359 55.0625 18.3516C54.5469 18.3516 54.1016 18.25 53.7266 18.0469C53.3516 17.8516 53.043 17.5977 52.8008 17.2852C52.5586 16.9648 52.3789 16.6055 52.2617 16.207C52.1445 15.8086 52.0859 15.4102 52.0859 15.0117C52.0859 14.6133 52.1328 14.2461 52.2266 13.9102C52.3281 13.5742 52.4688 13.2812 52.6484 13.0312C52.8359 12.7812 53.0547 12.5859 53.3047 12.4453C53.5625 12.3047 53.8438 12.2344 54.1484 12.2344C54.3281 12.2344 54.5039 12.2734 54.6758 12.3516C54.8555 12.4219 55.0156 12.5273 55.1562 12.668C55.2969 12.8008 55.4102 12.9648 55.4961 13.1602C55.582 13.3555 55.625 13.5781 55.625 13.8281C55.625 14.1484 55.5703 14.4492 55.4609 14.7305C55.3516 15.0117 55.1992 15.2734 55.0039 15.5156C54.8164 15.7578 54.5898 15.9805 54.3242 16.1836C54.0586 16.3867 53.7734 16.5625 53.4688 16.7109ZM53.1172 15.9492C53.3594 15.8477 53.5781 15.7188 53.7734 15.5625C53.9766 15.4062 54.1484 15.2344 54.2891 15.0469C54.4297 14.8594 54.5391 14.6641 54.6172 14.4609C54.6953 14.25 54.7344 14.0391 54.7344 13.8281C54.7344 13.5938 54.6758 13.418 54.5586 13.3008C54.4414 13.1758 54.3047 13.1133 54.1484 13.1133C53.9375 13.1133 53.7578 13.1719 53.6094 13.2891C53.4609 13.4062 53.3398 13.5586 53.2461 13.7461C53.1523 13.9336 53.082 14.1445 53.0352 14.3789C52.9961 14.6055 52.9766 14.832 52.9766 15.0586C52.9766 15.1992 52.9883 15.3477 53.0117 15.5039C53.043 15.6602 53.0781 15.8086 53.1172 15.9492Z" fill="#831843"/>
</svg>
