<svg width="58" height="19" viewBox="0 0 58 19" fill="none" xmlns="http://www.w3.org/2000/svg">
<path d="M20.9531 1.6875C21.0625 1.6875 21.1641 1.73047 21.2578 1.81641C21.3594 1.89453 21.4102 2 21.4102 2.13281C21.4102 2.29688 21.3359 2.42188 21.1875 2.50781C21.1797 2.51563 21.0703 2.58984 20.8594 2.73047C20.6562 2.87109 20.4141 3.08984 20.1328 3.38672C20.7188 3.45703 21.3164 3.49219 21.9258 3.49219C22.5195 3.49219 23.0586 3.45313 23.543 3.375C24.0352 3.28906 24.4727 3.17578 24.8555 3.03516C25.2461 2.88672 25.582 2.71484 25.8633 2.51953C26.1523 2.32422 26.3906 2.10938 26.5781 1.875C26.625 1.82031 26.6797 1.77734 26.7422 1.74609C26.8047 1.70703 26.8711 1.6875 26.9414 1.6875C27.0664 1.6875 27.168 1.73438 27.2461 1.82812C27.332 1.92188 27.375 2.02344 27.375 2.13281C27.375 2.24219 27.3477 2.32813 27.293 2.39062C27.1055 2.64062 26.8555 2.88672 26.543 3.12891C26.2305 3.36328 25.8516 3.57422 25.4062 3.76172C24.9609 3.94922 24.4492 4.10156 23.8711 4.21875C23.293 4.32812 22.6484 4.38281 21.9375 4.38281C21.5312 4.38281 21.125 4.36719 20.7188 4.33594C20.3125 4.29688 19.9062 4.24609 19.5 4.18359C19.3203 4.44141 19.1523 4.73047 18.9961 5.05078C18.8477 5.37109 18.7266 5.72266 18.6328 6.10547C18.4688 6.76172 18.375 7.45703 18.3516 8.19141C18.3359 8.92578 18.3203 9.67578 18.3047 10.4414C18.2969 11.1992 18.2617 11.957 18.1992 12.7148C18.1367 13.4648 17.9883 14.1914 17.7539 14.8945C17.5742 15.4258 17.332 15.918 17.0273 16.3711C16.7305 16.8242 16.3633 17.2188 15.9258 17.5547C15.4961 17.8828 15 18.1406 14.4375 18.3281C13.8828 18.5234 13.2578 18.6211 12.5625 18.6211C11.4219 18.6211 10.3906 18.3945 9.46875 17.9414C8.54688 17.4883 7.74609 16.7734 7.06641 15.7969C7.04297 15.7578 7.01172 15.7031 6.97266 15.6328C6.93359 15.5625 6.91406 15.4922 6.91406 15.4219C6.91406 15.3125 6.95312 15.207 7.03125 15.1055C7.10938 15.0039 7.21875 14.9531 7.35938 14.9531C7.44531 14.9531 7.52344 14.9766 7.59375 15.0234C7.66406 15.0625 7.71875 15.1133 7.75781 15.1758C8.32812 16.0508 8.99609 16.6992 9.76172 17.1211C10.5273 17.5352 11.457 17.7422 12.5508 17.7422C13.1289 17.7422 13.6484 17.6719 14.1094 17.5312C14.5703 17.3828 14.9766 17.1758 15.3281 16.9102C15.6875 16.6367 15.9961 16.3047 16.2539 15.9141C16.5117 15.5234 16.7266 15.0781 16.8984 14.5781C17.0859 14.0312 17.2031 13.4023 17.25 12.6914C17.3047 11.9727 17.3398 11.2266 17.3555 10.4531C17.3711 9.67188 17.3984 8.89062 17.4375 8.10938C17.4844 7.32812 17.5938 6.58984 17.7656 5.89453C17.8516 5.52734 17.9648 5.1875 18.1055 4.875C18.2461 4.5625 18.3945 4.27344 18.5508 4.00781C17.5039 3.79688 16.4609 3.53125 15.4219 3.21094C14.3906 2.88281 13.3789 2.57031 12.3867 2.27344C11.4023 1.96875 10.4492 1.70703 9.52734 1.48828C8.61328 1.26953 7.75 1.16016 6.9375 1.16016C6.19531 1.16016 5.50781 1.26562 4.875 1.47656C4.25 1.6875 3.70703 1.98437 3.24609 2.36719C2.79297 2.75 2.4375 3.21094 2.17969 3.75C1.92969 4.28906 1.80469 4.88672 1.80469 5.54297C1.80469 6.01953 1.88672 6.45703 2.05078 6.85547C2.22266 7.25391 2.45703 7.60156 2.75391 7.89844C3.05078 8.1875 3.40234 8.41406 3.80859 8.57812C4.21484 8.74219 4.66016 8.82422 5.14453 8.82422C5.65234 8.82422 6.10547 8.75 6.50391 8.60156C6.90234 8.44531 7.25391 8.25391 7.55859 8.02734C7.86328 7.80078 8.12109 7.55469 8.33203 7.28906C8.55078 7.02344 8.72656 6.77734 8.85938 6.55078C9 6.31641 9.10156 6.125 9.16406 5.97656C9.23438 5.82031 9.26953 5.74219 9.26953 5.74219C9.30078 5.65625 9.35547 5.58594 9.43359 5.53125C9.51172 5.47656 9.59766 5.44922 9.69141 5.44922C9.82422 5.44922 9.92969 5.49609 10.0078 5.58984C10.0938 5.67578 10.1367 5.77734 10.1367 5.89453C10.1367 5.91797 10.1328 5.94141 10.125 5.96484C10.125 5.98047 10.1211 6 10.1133 6.02344C10.1055 6.03906 10.0625 6.14453 9.98438 6.33984C9.90625 6.52734 9.78516 6.75781 9.62109 7.03125C9.45703 7.29688 9.24609 7.58594 8.98828 7.89844C8.73047 8.21094 8.41797 8.50391 8.05078 8.77734C7.68359 9.04297 7.25781 9.26562 6.77344 9.44531C6.29688 9.61719 5.75 9.70312 5.13281 9.70312C4.53906 9.70312 3.98438 9.59766 3.46875 9.38672C2.96094 9.17578 2.51562 8.88672 2.13281 8.51953C1.75781 8.15234 1.46094 7.71484 1.24219 7.20703C1.03125 6.69922 0.925781 6.14453 0.925781 5.54297C0.925781 4.74609 1.07812 4.02734 1.38281 3.38672C1.6875 2.73828 2.10938 2.18359 2.64844 1.72266C3.1875 1.26172 3.82422 0.90625 4.55859 0.65625C5.29297 0.40625 6.08984 0.28125 6.94922 0.28125C7.57422 0.28125 8.20312 0.335938 8.83594 0.445312C9.46875 0.554687 10.1094 0.699219 10.7578 0.878906C11.4141 1.05859 12.0781 1.25781 12.75 1.47656C13.4219 1.69531 14.1016 1.91797 14.7891 2.14453C15.4844 2.36328 16.1875 2.57031 16.8984 2.76562C17.6172 2.96094 18.3477 3.12109 19.0898 3.24609C19.2852 3.00391 19.4766 2.78906 19.6641 2.60156C19.8594 2.41406 20.0312 2.26172 20.1797 2.14453C20.3359 2.01953 20.4648 1.92578 20.5664 1.86328C20.668 1.79297 20.7266 1.75391 20.7422 1.74609C20.8203 1.70703 20.8906 1.6875 20.9531 1.6875ZM22.5586 16.7109C22.7227 16.9375 22.9336 17.1211 23.1914 17.2617C23.4492 17.3945 23.7656 17.4609 24.1406 17.4609C24.5234 17.4609 24.8711 17.3711 25.1836 17.1914C25.4961 17.0039 25.7812 16.7617 26.0391 16.4648C26.2969 16.168 26.5273 15.8359 26.7305 15.4688C26.9336 15.1016 27.1172 14.7344 27.2812 14.3672C27.3203 14.2812 27.375 14.2188 27.4453 14.1797C27.5156 14.1328 27.5938 14.1094 27.6797 14.1094C27.8125 14.1094 27.918 14.1562 27.9961 14.25C28.082 14.3438 28.125 14.4453 28.125 14.5547C28.125 14.5938 28.1211 14.6289 28.1133 14.6602C28.1055 14.6836 28.0938 14.7109 28.0781 14.7422C27.5391 15.9297 26.9492 16.8242 26.3086 17.4258C25.6758 18.0273 24.957 18.3359 24.1523 18.3516C23.6367 18.3516 23.1914 18.25 22.8164 18.0469C22.4414 17.8516 22.1328 17.5977 21.8906 17.2852C21.6484 16.9648 21.4688 16.6055 21.3516 16.207C21.2344 15.8086 21.1758 15.4102 21.1758 15.0117C21.1758 14.6133 21.2227 14.2461 21.3164 13.9102C21.418 13.5742 21.5586 13.2812 21.7383 13.0312C21.9258 12.7812 22.1445 12.5859 22.3945 12.4453C22.6523 12.3047 22.9336 12.2344 23.2383 12.2344C23.418 12.2344 23.5938 12.2734 23.7656 12.3516C23.9453 12.4219 24.1055 12.5273 24.2461 12.668C24.3867 12.8008 24.5 12.9648 24.5859 13.1602C24.6719 13.3555 24.7148 13.5781 24.7148 13.8281C24.7148 14.1484 24.6602 14.4492 24.5508 14.7305C24.4414 15.0117 24.2891 15.2734 24.0938 15.5156C23.9062 15.7578 23.6797 15.9805 23.4141 16.1836C23.1484 16.3867 22.8633 16.5625 22.5586 16.7109ZM22.207 15.9492C22.4492 15.8477 22.668 15.7188 22.8633 15.5625C23.0664 15.4062 23.2383 15.2344 23.3789 15.0469C23.5195 14.8594 23.6289 14.6641 23.707 14.4609C23.7852 14.25 23.8242 14.0391 23.8242 13.8281C23.8242 13.5938 23.7656 13.418 23.6484 13.3008C23.5312 13.1758 23.3945 13.1133 23.2383 13.1133C23.0273 13.1133 22.8477 13.1719 22.6992 13.2891C22.5508 13.4062 22.4297 13.5586 22.3359 13.7461C22.2422 13.9336 22.1719 14.1445 22.125 14.3789C22.0859 14.6055 22.0664 14.832 22.0664 15.0586C22.0664 15.1992 22.0781 15.3477 22.1016 15.5039C22.1328 15.6602 22.168 15.8086 22.207 15.9492ZM30 16.957C30.1172 16.7227 30.2656 16.4336 30.4453 16.0898C30.6328 15.7383 30.8242 15.3867 31.0195 15.0352C31.2227 14.6836 31.418 14.3516 31.6055 14.0391C31.8008 13.7266 31.9648 13.4883 32.0977 13.3242C32.3242 13.0508 32.5586 12.8555 32.8008 12.7383C33.043 12.6211 33.2656 12.5625 33.4688 12.5625C33.6719 12.5625 33.8438 12.6055 33.9844 12.6914C34.1328 12.7773 34.2539 12.8945 34.3477 13.043C34.4414 13.1836 34.5117 13.3516 34.5586 13.5469C34.6055 13.7344 34.6289 13.9375 34.6289 14.1562C34.6289 14.2812 34.6211 14.4453 34.6055 14.6484C34.5977 14.8516 34.5859 15.0703 34.5703 15.3047C34.5625 15.5391 34.5508 15.7812 34.5352 16.0312C34.5273 16.2812 34.5195 16.5156 34.5117 16.7344C34.6289 16.5 34.7617 16.2422 34.9102 15.9609C35.0586 15.6719 35.207 15.3867 35.3555 15.1055C35.5117 14.8242 35.6602 14.5625 35.8008 14.3203C35.9414 14.0703 36.0703 13.8672 36.1875 13.7109C36.5234 13.25 36.8359 12.9414 37.125 12.7852C37.4219 12.6289 37.6836 12.5508 37.9102 12.5508C38.1758 12.5508 38.3945 12.6016 38.5664 12.7031C38.7383 12.7969 38.8711 12.9219 38.9648 13.0781C39.0664 13.2266 39.1367 13.3945 39.1758 13.582C39.2148 13.7695 39.2344 13.9492 39.2344 14.1211C39.2344 14.3867 39.2148 14.6641 39.1758 14.9531C39.1367 15.2422 39.1172 15.5859 39.1172 15.9844C39.1172 16.1484 39.125 16.3125 39.1406 16.4766C39.1562 16.6406 39.1875 16.7852 39.2344 16.9102C39.2891 17.0352 39.3711 17.1367 39.4805 17.2148C39.5898 17.293 39.7383 17.332 39.9258 17.332C40.1289 17.332 40.3281 17.2812 40.5234 17.1797C40.7188 17.0703 40.9062 16.9297 41.0859 16.7578C41.2656 16.5859 41.4336 16.3906 41.5898 16.1719C41.7539 15.9531 41.9023 15.7344 42.0352 15.5156C42.168 15.2969 42.2852 15.0898 42.3867 14.8945C42.4883 14.6914 42.5703 14.5195 42.6328 14.3789C42.6719 14.293 42.7266 14.2266 42.7969 14.1797C42.8672 14.1328 42.9453 14.1094 43.0312 14.1094C43.1641 14.1094 43.2695 14.1602 43.3477 14.2617C43.4336 14.3555 43.4766 14.457 43.4766 14.5664C43.4766 14.6211 43.4648 14.6758 43.4414 14.7305C43.4102 14.793 43.3477 14.9258 43.2539 15.1289C43.1602 15.3242 43.0352 15.5508 42.8789 15.8086C42.7227 16.0586 42.5391 16.3242 42.3281 16.6055C42.125 16.8867 41.8984 17.1484 41.6484 17.3906C41.3984 17.625 41.1289 17.8203 40.8398 17.9766C40.5508 18.125 40.2461 18.1992 39.9258 18.1992C39.582 18.1992 39.3008 18.1367 39.082 18.0117C38.8711 17.8945 38.6992 17.7344 38.5664 17.5312C38.4414 17.3281 38.3555 17.0938 38.3086 16.8281C38.2617 16.5625 38.2383 16.2852 38.2383 15.9961C38.2383 15.6133 38.2578 15.2617 38.2969 14.9414C38.3359 14.6133 38.3555 14.3594 38.3555 14.1797C38.3555 13.9844 38.3359 13.8359 38.2969 13.7344C38.2656 13.6328 38.2227 13.5625 38.168 13.5234C38.1211 13.4766 38.0742 13.4531 38.0273 13.4531C37.9805 13.4453 37.9453 13.4414 37.9219 13.4414C37.7344 13.4414 37.5352 13.5469 37.3242 13.7578C37.1211 13.9609 36.9102 14.2344 36.6914 14.5781C36.4727 14.9219 36.2461 15.3125 36.0117 15.75C35.7852 16.1875 35.5547 16.6328 35.3203 17.0859C35.1875 17.3359 35.0742 17.543 34.9805 17.707C34.8945 17.8711 34.8086 18 34.7227 18.0938C34.6445 18.1875 34.5664 18.2539 34.4883 18.293C34.4102 18.332 34.3242 18.3516 34.2305 18.3516C34.0273 18.3516 33.8711 18.2812 33.7617 18.1406C33.6602 18 33.6094 17.8164 33.6094 17.5898C33.6094 17.4727 33.6133 17.3164 33.6211 17.1211C33.6289 16.9258 33.6367 16.7109 33.6445 16.4766C33.6523 16.2422 33.6641 16 33.6797 15.75C33.6953 15.5 33.707 15.2617 33.7148 15.0352C33.7227 14.8008 33.7305 14.5938 33.7383 14.4141C33.7461 14.2344 33.75 14.0977 33.75 14.0039C33.75 13.8008 33.7148 13.6562 33.6445 13.5703C33.5742 13.4766 33.4922 13.4297 33.3984 13.4297C33.3125 13.4297 33.2148 13.4609 33.1055 13.5234C33.0039 13.5859 32.8828 13.707 32.7422 13.8867C32.6328 14.0273 32.4922 14.2344 32.3203 14.5078C32.1562 14.7734 31.9805 15.0703 31.793 15.3984C31.6055 15.7266 31.418 16.0625 31.2305 16.4062C31.0508 16.75 30.8945 17.0586 30.7617 17.332C30.5977 17.6602 30.4336 17.8828 30.2695 18C30.1055 18.125 29.9453 18.1875 29.7891 18.1875C29.5625 18.1875 29.3945 18.1211 29.2852 17.9883C29.1758 17.8477 29.1211 17.6641 29.1211 17.4375C29.1211 17.4141 29.125 17.2734 29.1328 17.0156C29.1484 16.7578 29.1641 16.4453 29.1797 16.0781C29.1953 15.7031 29.2109 15.3047 29.2266 14.8828C29.25 14.4609 29.2695 14.0664 29.2852 13.6992C29.293 13.5039 29.2852 13.3242 29.2617 13.1602C29.2383 12.9961 29.207 12.8984 29.168 12.8672C29.1055 12.8828 28.9805 13.0273 28.793 13.3008C28.6133 13.5742 28.3828 14.0508 28.1016 14.7305C28.0625 14.8164 28.0039 14.8828 27.9258 14.9297C27.8477 14.9766 27.7656 15 27.6797 15C27.5469 15 27.4414 14.957 27.3633 14.8711C27.2852 14.7773 27.2461 14.6719 27.2461 14.5547C27.2461 14.5 27.2578 14.4414 27.2812 14.3789C27.6328 13.543 27.9688 12.9297 28.2891 12.5391C28.6094 12.1406 28.9219 11.9414 29.2266 11.9414C29.4062 11.9414 29.5547 11.9844 29.6719 12.0703C29.7969 12.1484 29.8945 12.2539 29.9648 12.3867C30.0352 12.5117 30.0859 12.6562 30.1172 12.8203C30.1484 12.9844 30.1641 13.1445 30.1641 13.3008C30.1641 13.9961 30.1445 14.6328 30.1055 15.2109C30.0742 15.7891 30.0391 16.3711 30 16.957ZM51.7031 14.7305C51.6719 14.793 51.6055 14.9258 51.5039 15.1289C51.4102 15.3242 51.2852 15.5508 51.1289 15.8086C50.9805 16.0664 50.8047 16.3359 50.6016 16.6172C50.3984 16.8984 50.1719 17.1562 49.9219 17.3906C49.6719 17.625 49.4023 17.8203 49.1133 17.9766C48.8242 18.125 48.5195 18.1992 48.1992 18.1992C47.7461 18.1992 47.3633 18.0547 47.0508 17.7656C46.7461 17.4766 46.5234 17.1133 46.3828 16.6758C46.1172 17.1211 45.8008 17.4766 45.4336 17.7422C45.0664 18 44.6992 18.1289 44.332 18.1289C44.043 18.1289 43.7812 18.0781 43.5469 17.9766C43.3125 17.8672 43.1133 17.7188 42.9492 17.5312C42.7852 17.3359 42.6562 17.1094 42.5625 16.8516C42.4766 16.5938 42.4336 16.3125 42.4336 16.0078C42.4336 15.3984 42.5352 14.8633 42.7383 14.4023C42.9492 13.9336 43.2148 13.543 43.5352 13.2305C43.8555 12.918 44.207 12.6836 44.5898 12.5273C44.9805 12.3711 45.3555 12.293 45.7148 12.293C45.957 12.293 46.1797 12.3281 46.3828 12.3984C46.5859 12.4609 46.7578 12.5312 46.8984 12.6094C47.0469 12.6875 47.1602 12.7617 47.2383 12.832C47.3164 12.8945 47.3594 12.9297 47.3672 12.9375C47.4531 13.0391 47.4961 13.1445 47.4961 13.2539C47.4961 13.3711 47.4531 13.4766 47.3672 13.5703C47.2812 13.6562 47.1797 13.6992 47.0625 13.6992C46.9375 13.6992 46.832 13.6562 46.7461 13.5703C46.7305 13.5547 46.6953 13.5273 46.6406 13.4883C46.5859 13.4414 46.5117 13.3945 46.418 13.3477C46.3242 13.3008 46.2109 13.2617 46.0781 13.2305C45.9531 13.1914 45.8086 13.1719 45.6445 13.1719C45.4023 13.1719 45.1445 13.2266 44.8711 13.3359C44.5977 13.4453 44.3477 13.6172 44.1211 13.8516C43.8945 14.0781 43.7031 14.3672 43.5469 14.7188C43.3984 15.0625 43.3242 15.4727 43.3242 15.9492C43.3242 16.0977 43.3398 16.25 43.3711 16.4062C43.4023 16.5547 43.457 16.6914 43.5352 16.8164C43.6133 16.9414 43.7188 17.043 43.8516 17.1211C43.9844 17.1992 44.1484 17.2383 44.3438 17.2383C44.4844 17.2383 44.6445 17.1914 44.8242 17.0977C45.0117 17.0039 45.1875 16.8594 45.3516 16.6641C45.5234 16.4688 45.6758 16.2227 45.8086 15.9258C45.9492 15.6289 46.0469 15.2773 46.1016 14.8711C46.1172 14.7617 46.168 14.6719 46.2539 14.6016C46.3398 14.5234 46.4414 14.4844 46.5586 14.4844C46.668 14.4844 46.7617 14.5273 46.8398 14.6133C46.9258 14.6992 46.9727 14.7969 46.9805 14.9062C46.9883 15.0547 47.0039 15.2656 47.0273 15.5391C47.0508 15.8047 47.1016 16.0703 47.1797 16.3359C47.2656 16.6016 47.3906 16.832 47.5547 17.0273C47.7188 17.2227 47.9453 17.3203 48.2344 17.3203C48.4219 17.3203 48.6055 17.2695 48.7852 17.168C48.9727 17.0664 49.1523 16.9336 49.3242 16.7695C49.5039 16.5977 49.6719 16.4062 49.8281 16.1953C49.9922 15.9766 50.1406 15.7578 50.2734 15.5391C50.4062 15.3203 50.5234 15.1094 50.625 14.9062C50.7266 14.7031 50.8125 14.5273 50.8828 14.3789C50.9219 14.293 50.9766 14.2266 51.0469 14.1797C51.125 14.1328 51.207 14.1094 51.293 14.1094C51.4258 14.1094 51.5312 14.1602 51.6094 14.2617C51.6953 14.3555 51.7383 14.457 51.7383 14.5664C51.7383 14.6211 51.7266 14.6758 51.7031 14.7305ZM52.1953 13.6641C52.1484 13.7891 52.0898 13.9297 52.0195 14.0859C51.957 14.2422 51.8828 14.4062 51.7969 14.5781C51.7266 14.7109 51.6523 14.8164 51.5742 14.8945C51.5039 14.9648 51.4102 15 51.293 15C51.1602 15 51.0547 14.9609 50.9766 14.8828C50.8984 14.7969 50.8594 14.6992 50.8594 14.5898C50.8594 14.5508 50.8633 14.5195 50.8711 14.4961C50.8789 14.4648 50.8984 14.418 50.9297 14.3555C51.1328 13.9648 51.2812 13.625 51.375 13.3359C51.4766 13.0391 51.5586 12.7305 51.6211 12.4102C51.5664 12.2305 51.5273 12.0781 51.5039 11.9531C51.4805 11.8281 51.4688 11.6992 51.4688 11.5664C51.4688 11.3086 51.5234 11.1016 51.6328 10.9453C51.7422 10.7812 51.8945 10.6992 52.0898 10.6992C52.2695 10.6992 52.4102 10.7773 52.5117 10.9336C52.6211 11.0898 52.6758 11.2812 52.6758 11.5078C52.6758 11.6328 52.6641 11.7578 52.6406 11.8828C52.6172 12.0078 52.5859 12.1641 52.5469 12.3516C52.7266 12.7969 52.9062 13.1914 53.0859 13.5352C53.2656 13.8789 53.4258 14.1953 53.5664 14.4844C53.707 14.7656 53.8203 15.0312 53.9062 15.2812C54 15.5312 54.0469 15.7812 54.0469 16.0312C54.0469 16.3594 53.9805 16.6719 53.8477 16.9688C53.7148 17.2656 53.4961 17.5156 53.1914 17.7188C53.2305 17.7266 53.2695 17.7305 53.3086 17.7305C53.3477 17.7305 53.3867 17.7305 53.4258 17.7305C53.8711 17.7305 54.2812 17.6289 54.6562 17.4258C55.0312 17.2227 55.3672 16.9609 55.6641 16.6406C55.9688 16.3125 56.2383 15.9531 56.4727 15.5625C56.707 15.1641 56.9102 14.7695 57.082 14.3789C57.1602 14.1992 57.2695 14.1094 57.4102 14.1094C57.543 14.1094 57.6445 14.1562 57.7148 14.25C57.793 14.3438 57.832 14.4453 57.832 14.5547C57.832 14.6172 57.8203 14.6758 57.7969 14.7305C57.7109 14.9414 57.5977 15.1836 57.457 15.457C57.3242 15.7227 57.1602 16 56.9648 16.2891C56.7773 16.5703 56.5586 16.8477 56.3086 17.1211C56.0586 17.3945 55.7773 17.6406 55.4648 17.8594C55.1602 18.0703 54.8242 18.2383 54.457 18.3633C54.0898 18.4961 53.6875 18.5625 53.25 18.5625C52.7266 18.5625 52.2383 18.4688 51.7852 18.2812C51.3398 18.1016 50.9766 17.8008 50.6953 17.3789C50.6484 17.3086 50.625 17.2344 50.625 17.1562C50.625 17.0391 50.668 16.9375 50.7539 16.8516C50.8477 16.7578 50.9531 16.7109 51.0703 16.7109C51.1953 16.7109 51.3008 16.7539 51.3867 16.8398C51.3945 16.8555 51.4219 16.8828 51.4688 16.9219C51.5156 16.9531 51.5703 16.9922 51.6328 17.0391C51.7031 17.0781 51.7812 17.1133 51.8672 17.1445C51.9609 17.1758 52.0547 17.1914 52.1484 17.1914C52.3359 17.1914 52.4922 17.1523 52.6172 17.0742C52.75 16.9961 52.8555 16.9023 52.9336 16.793C53.0117 16.6758 53.0664 16.5547 53.0977 16.4297C53.1367 16.2969 53.1562 16.1836 53.1562 16.0898C53.1562 15.8945 53.125 15.6992 53.0625 15.5039C53 15.3086 52.918 15.1133 52.8164 14.918C52.7227 14.7227 52.6172 14.5234 52.5 14.3203C52.3906 14.1094 52.2891 13.8906 52.1953 13.6641Z" fill="#831843"/>
</svg>
